<?xml version="1.0" encoding="UTF-8"?>
<svg id="_레이어_1" data-name="레이어 1" xmlns="http://www.w3.org/2000/svg" viewBox="0 0 800 800">
  <defs>
    <style>
      .cls-1 {
        fill: #ccf5ec;
      }

      .cls-2 {
        fill: #001d35;
      }

      .cls-3 {
        fill: #33d1b7;
      }
    </style>
  </defs>
  <g>
    <g>
      <g>
        <rect class="cls-3" x="359.47" y="561.64" width="16.83" height="45.51" transform="translate(735.77 1168.79) rotate(180)"/>
        <path class="cls-3" d="M361.43,610.31c-.66-4.15-7.08-7.12-12.16-7.37-15.32-.76-26.08,22.76-27.64,26.17-2.51,5.5-6.55,16.57-5.16,32.06,3.03-6.93,8.44-17.05,18.06-26.53,13.73-13.53,27.95-17.76,26.9-24.32Z"/>
        <path class="cls-3" d="M375.68,605.78c-1.86-3.77-8.87-4.69-13.8-3.42-14.86,3.83-18.13,29.48-18.61,33.2-.77,5.99-1.33,17.77,4.61,32.15.83-7.51,2.98-18.79,9.35-30.7,9.08-17,21.4-25.26,18.45-31.22Z"/>
        <path class="cls-3" d="M392.13,605.52c-2.2-3.24-8.92-3.16-13.43-1.33-13.56,5.53-13.63,29.74-13.64,33.24-.01,5.66.85,16.64,8.14,29.17-.1-7.07.6-17.81,5.2-29.69,6.56-16.96,17.21-26.26,13.72-31.39Z"/>
      </g>
      <g>
        <rect class="cls-3" x="433.39" y="561.64" width="16.83" height="45.51"/>
        <path class="cls-3" d="M448.25,610.31c.66-4.15,7.08-7.12,12.16-7.37,15.32-.76,26.08,22.76,27.64,26.17,2.51,5.5,6.55,16.57,5.16,32.06-3.03-6.93-8.44-17.05-18.06-26.53-13.73-13.53-27.95-17.76-26.9-24.32Z"/>
        <path class="cls-3" d="M434,605.78c1.86-3.77,8.87-4.69,13.8-3.42,14.86,3.83,18.13,29.48,18.61,33.2.77,5.99,1.33,17.77-4.61,32.15-.83-7.51-2.98-18.79-9.35-30.7-9.08-17-21.4-25.26-18.45-31.22Z"/>
        <path class="cls-3" d="M417.56,605.52c2.2-3.24,8.92-3.16,13.43-1.33,13.56,5.53,13.63,29.74,13.64,33.24.01,5.66-.85,16.64-8.14,29.17.1-7.07-.6-17.81-5.2-29.69-6.56-16.96-17.21-26.26-13.72-31.39Z"/>
      </g>
    </g>
    <path class="cls-1" d="M399.84,290.31c-39.06,0-76.02,8.99-108.93,25l10.5,38.21-9.93,192.73c6.56,6.89,45.44,46.36,108.13,46.53,63.15.17,102.4-39.68,108.92-46.53v-221.29l2.83-8.36c-33.56-16.81-71.43-26.28-111.51-26.28Z"/>
    <path class="cls-2" d="M492.5,386.5c-3.7-4.87-35.66-30.42-91.37-30.97-57.09-.56-90.14,26.38-93.63,30.97l-34.23-61.55c19.17-11.32,64.43-34.6,126.58-34.64,62.32-.04,107.72,23.32,126.89,34.64l-34.23,61.55Z"/>
    <path class="cls-2" d="M526.73,324.95c9.84,13.44,31.08,46.4,33.01,92.87,3,72.05-42.79,119.92-51.22,128.43-10.85-15.39-38.39-58.81-37.41-119.62.68-42.16,14.77-74.14,23.67-90.84l31.95-10.84Z"/>
    <path class="cls-2" d="M273.27,324.95c-9.84,13.44-31.08,46.4-33.01,92.87-3,72.05,42.79,119.92,51.22,128.43,10.85-15.39,38.39-58.81,37.41-119.62-.68-42.16-14.77-74.14-23.67-90.84l-31.95-10.84Z"/>
  </g>
  <g>
    <path class="cls-2" d="M534.86,271.1c-2.39-27.17-9.65-49.83-17.05-66.9l-29.82,4.7-84.38,5.92-84.38-5.92-29.82-4.7c-7.39,17.07-14.65,39.74-17.05,66.9-2.66,30.2,1.79,53.44,4.5,67.07,3.93,19.74,9.5,24.87,14.23,36.55l2.22-.44c.7-20.61,49.8-26.25,110.28-26.25s109.58,5.64,110.28,26.25l2.22.44c4.73-11.68,10.3-16.8,14.23-36.55,2.71-13.63,7.17-36.87,4.5-67.07Z"/>
    <path class="cls-2" d="M463.33,194.65c12.41-2.97,27.75-7.85,44.32-16.1,21.72-10.82,37.9-23.64,48.96-33.92-3.27,17.11-8.21,36.75-15.78,57.98-6.52,18.3-13.79,34.39-20.91,48.18l-56.59-56.14Z"/>
    <path class="cls-2" d="M349.29,196.82c-11.77-4.95-26.11-12.26-41.11-23.09-19.67-14.21-33.55-29.49-42.79-41.43.45,17.42,2.13,37.6,6.14,59.77,3.46,19.12,8.01,36.18,12.79,50.94l64.96-46.19Z"/>
  </g>
  <path class="cls-1" d="M509.16,280.78c0,45.55-30.42,76.48-105.54,76.48s-105.54-30.93-105.54-76.48,47.25-82.48,105.54-82.48,105.54,36.93,105.54,82.48Z"/>
  <path class="cls-2" d="M385.88,296.85l17.75-23.65,16.94,23.65c-.26,5.96-1.06,12.96-2.92,20.62-3.53,14.57-9.49,25.83-14.43,33.48-4.96-7.67-10.94-18.97-14.46-33.59-1.83-7.61-2.63-14.57-2.89-20.5Z"/>
  <circle class="cls-3" cx="466.11" cy="275.16" r="36.11"/>
  <circle class="cls-3" cx="341.14" cy="275.16" r="36.11"/>
  <circle class="cls-2" cx="454.37" cy="275.16" r="24.37"/>
  <circle class="cls-2" cx="352.88" cy="275.16" r="24.37"/>
  <circle class="cls-1" cx="361.39" cy="271.1" r="12.1"/>
  <circle class="cls-1" cx="445.86" cy="271.1" r="12.1"/>
  <ellipse class="cls-2" cx="400.82" cy="229.77" rx="112.69" ry="43.43"/>
</svg>