<svg width="20" height="20" viewBox="0 0 20 20" fill="none" xmlns="http://www.w3.org/2000/svg">
<path d="M10.75 13.05C11.036 12.8849 11.2595 12.6301 11.3858 12.325C11.5122 12.0199 11.5344 11.6817 11.4489 11.3627C11.3634 11.0438 11.1751 10.762 10.9131 10.5609C10.6512 10.3599 10.3302 10.251 10 10.251C9.6698 10.251 9.34882 10.3599 9.08686 10.5609C8.82489 10.762 8.63657 11.0438 8.55111 11.3627C8.46565 11.6817 8.48782 12.0199 8.61418 12.325C8.74054 12.6301 8.96404 12.8849 9.25 13.05V13.5C9.25 13.6989 9.32902 13.8897 9.46967 14.0303C9.61032 14.171 9.80109 14.25 10 14.25C10.1989 14.25 10.3897 14.171 10.5303 14.0303C10.671 13.8897 10.75 13.6989 10.75 13.5V13.05Z" fill="#5E6B70"/>
<path fill-rule="evenodd" clip-rule="evenodd" d="M6.25 7.095V6.75C6.25 5.75544 6.64509 4.80161 7.34835 4.09835C8.05161 3.39509 9.00544 3 10 3C10.9946 3 11.9484 3.39509 12.6517 4.09835C13.3549 4.80161 13.75 5.75544 13.75 6.75V7.095C14.394 7.26128 14.9645 7.63687 15.3718 8.16272C15.7791 8.68858 16.0001 9.33487 16 10V14C16 14.7956 15.6839 15.5587 15.1213 16.1213C14.5587 16.6839 13.7956 17 13 17H7C6.20435 17 5.44129 16.6839 4.87868 16.1213C4.31607 15.5587 4 14.7956 4 14V10C3.99994 9.33487 4.22093 8.68858 4.62821 8.16272C5.0355 7.63687 5.60599 7.26128 6.25 7.095ZM7.75 6.75C7.75 6.15326 7.98705 5.58097 8.40901 5.15901C8.83097 4.73705 9.40326 4.5 10 4.5C10.5967 4.5 11.169 4.73705 11.591 5.15901C12.0129 5.58097 12.25 6.15326 12.25 6.75V7H7.75V6.75ZM5.5 10C5.5 9.60218 5.65804 9.22064 5.93934 8.93934C6.22064 8.65804 6.60218 8.5 7 8.5H13C13.3978 8.5 13.7794 8.65804 14.0607 8.93934C14.342 9.22064 14.5 9.60218 14.5 10V14C14.5 14.3978 14.342 14.7794 14.0607 15.0607C13.7794 15.342 13.3978 15.5 13 15.5H7C6.60218 15.5 6.22064 15.342 5.93934 15.0607C5.65804 14.7794 5.5 14.3978 5.5 14V10Z" fill="#5E6B70"/>
</svg>
