<svg width="20" height="20" viewBox="0 0 20 20" fill="none" xmlns="http://www.w3.org/2000/svg">
<path d="M16.592 12.9253H12.817C12.596 12.9253 12.384 13.0131 12.2277 13.1694C12.0715 13.3257 11.9837 13.5376 11.9837 13.7587C11.9837 13.9797 12.0715 14.1916 12.2277 14.3479C12.384 14.5042 12.596 14.592 12.817 14.592H14.817C13.8978 15.5526 12.7123 16.2164 11.413 16.4982C10.1136 16.7799 8.75967 16.6667 7.52514 16.173C6.29061 15.6794 5.23188 14.8279 4.48498 13.728C3.73809 12.628 3.33714 11.3299 3.33366 10.0003C3.33366 9.77931 3.24586 9.56735 3.08958 9.41107C2.9333 9.25479 2.72134 9.16699 2.50033 9.16699C2.27931 9.16699 2.06735 9.25479 1.91107 9.41107C1.75479 9.56735 1.66699 9.77931 1.66699 10.0003C1.6714 11.6277 2.15218 13.2181 3.04999 14.5753C3.94781 15.9326 5.22338 16.9973 6.71928 17.638C8.21517 18.2787 9.86594 18.4674 11.4678 18.1809C13.0697 17.8943 14.5527 17.1449 15.7337 16.0253V17.5003C15.7337 17.7213 15.8215 17.9333 15.9777 18.0896C16.134 18.2459 16.346 18.3337 16.567 18.3337C16.788 18.3337 17 18.2459 17.1562 18.0896C17.3125 17.9333 17.4003 17.7213 17.4003 17.5003V13.7503C17.3983 13.535 17.313 13.3289 17.1623 13.1751C17.0116 13.0213 16.8072 12.9318 16.592 12.9253ZM10.0003 1.66699C7.86398 1.67309 5.81157 2.49942 4.26699 3.97533V2.50033C4.26699 2.27931 4.17919 2.06735 4.02291 1.91107C3.86663 1.75479 3.65467 1.66699 3.43366 1.66699C3.21264 1.66699 3.00068 1.75479 2.8444 1.91107C2.68812 2.06735 2.60033 2.27931 2.60033 2.50033V6.25033C2.60033 6.47134 2.68812 6.6833 2.8444 6.83958C3.00068 6.99586 3.21264 7.08366 3.43366 7.08366H7.18366C7.40467 7.08366 7.61663 6.99586 7.77291 6.83958C7.92919 6.6833 8.01699 6.47134 8.01699 6.25033C8.01699 6.02931 7.92919 5.81735 7.77291 5.66107C7.61663 5.50479 7.40467 5.41699 7.18366 5.41699H5.18366C6.10238 4.45688 7.28707 3.79324 8.58566 3.51125C9.88425 3.22926 11.2375 3.34178 12.4717 3.83438C13.7058 4.32698 14.7647 5.17717 15.5122 6.27583C16.2597 7.37449 16.6619 8.67148 16.667 10.0003C16.667 10.2213 16.7548 10.4333 16.9111 10.5896C17.0673 10.7459 17.2793 10.8337 17.5003 10.8337C17.7213 10.8337 17.9333 10.7459 18.0896 10.5896C18.2459 10.4333 18.3337 10.2213 18.3337 10.0003C18.3337 8.90598 18.1181 7.82234 17.6993 6.8113C17.2805 5.80025 16.6667 4.88159 15.8929 4.10777C15.1191 3.33395 14.2004 2.72012 13.1894 2.30133C12.1783 1.88254 11.0947 1.66699 10.0003 1.66699V1.66699Z" fill="#849197"/>
</svg>
