<svg width="16" height="16" viewBox="0 0 16 16" fill="none" xmlns="http://www.w3.org/2000/svg">
<path d="M13.0004 2.19961C13.0004 2.04048 12.9372 1.88787 12.8247 1.77535C12.7121 1.66282 12.5595 1.59961 12.4004 1.59961C12.2413 1.59961 12.0886 1.66282 11.9761 1.77535C11.8636 1.88787 11.8004 2.04048 11.8004 2.19961V2.99961H11.0004C10.8413 2.99961 10.6886 3.06282 10.5761 3.17535C10.4636 3.28787 10.4004 3.44048 10.4004 3.59961C10.4004 3.75874 10.4636 3.91135 10.5761 4.02387C10.6886 4.1364 10.8413 4.19961 11.0004 4.19961H11.8004V4.99961C11.8004 5.15874 11.8636 5.31135 11.9761 5.42387C12.0886 5.5364 12.2413 5.59961 12.4004 5.59961C12.5595 5.59961 12.7121 5.5364 12.8247 5.42387C12.9372 5.31135 13.0004 5.15874 13.0004 4.99961V4.19961H13.8004C13.9595 4.19961 14.1121 4.1364 14.2247 4.02387C14.3372 3.91135 14.4004 3.75874 14.4004 3.59961C14.4004 3.44048 14.3372 3.28787 14.2247 3.17535C14.1121 3.06282 13.9595 2.99961 13.8004 2.99961H13.0004V2.19961Z" fill="#00A093"/>
<path fill-rule="evenodd" clip-rule="evenodd" d="M7.20039 2.40039C6.45778 2.40039 5.74559 2.69539 5.22049 3.22049C4.69539 3.74559 4.40039 4.45778 4.40039 5.20039C4.40039 5.943 4.69539 6.65519 5.22049 7.18029C5.74559 7.70539 6.45778 8.00039 7.20039 8.00039C7.943 8.00039 8.65519 7.70539 9.18029 7.18029C9.70539 6.65519 10.0004 5.943 10.0004 5.20039C10.0004 4.45778 9.70539 3.74559 9.18029 3.22049C8.65519 2.69539 7.943 2.40039 7.20039 2.40039ZM5.60039 5.20039C5.59557 4.98732 5.63337 4.77543 5.71157 4.57717C5.78976 4.37891 5.90678 4.19827 6.05575 4.04585C6.20472 3.89344 6.38264 3.77232 6.57907 3.68961C6.77549 3.6069 6.98646 3.56427 7.19958 3.56422C7.41271 3.56416 7.6237 3.60669 7.82016 3.6893C8.01662 3.77191 8.1946 3.89294 8.34365 4.04528C8.4927 4.19762 8.60981 4.3782 8.6881 4.57643C8.7664 4.77465 8.8043 4.98652 8.79959 5.19959C8.79035 5.61764 8.61781 6.01546 8.31892 6.30789C8.02003 6.60032 7.61853 6.76411 7.20038 6.76422C6.78223 6.76432 6.38065 6.60072 6.08162 6.30845C5.78258 6.01617 5.60984 5.61844 5.60039 5.20039Z" fill="#00A093"/>
<path fill-rule="evenodd" clip-rule="evenodd" d="M7.20025 8.7998C6.30515 8.79953 5.42629 9.03878 4.65484 9.49273C3.88339 9.94668 3.24747 10.5988 2.81305 11.3814L2.46345 12.0102C2.37307 12.1731 2.32679 12.3569 2.32919 12.5432C2.33159 12.7295 2.38258 12.912 2.47713 13.0725C2.57167 13.2331 2.70649 13.3662 2.86826 13.4587C3.03002 13.5511 3.21312 13.5998 3.39945 13.5998H11.0011C11.1874 13.5998 11.3705 13.5511 11.5323 13.4587C11.694 13.3662 11.8288 13.2331 11.9234 13.0725C12.0179 12.912 12.0689 12.7295 12.0713 12.5432C12.0737 12.3569 12.0274 12.1731 11.9371 12.0102L11.5875 11.3814C11.153 10.5988 10.5171 9.94668 9.74567 9.49273C8.97422 9.03878 8.09535 8.79953 7.20025 8.7998ZM3.86185 11.9638C4.19283 11.3687 4.67685 10.8729 5.26381 10.5277C5.85076 10.1826 6.51932 10.0005 7.20025 10.0005C7.88119 10.0005 8.54974 10.1826 9.1367 10.5277C9.72366 10.8729 10.2077 11.3687 10.5387 11.9638L10.7803 12.3998H3.62025L3.86185 11.9638Z" fill="#00A093"/>
</svg>
