<svg width="3" height="14" viewBox="0 0 3 14" fill="none" xmlns="http://www.w3.org/2000/svg">
<path d="M3.001 1.501C3.00093 1.69805 2.96206 1.89315 2.88659 2.07518C2.81112 2.2572 2.70054 2.42258 2.56116 2.56187C2.42178 2.70116 2.25633 2.81163 2.07425 2.88697C1.89218 2.96232 1.69705 3.00107 1.5 3.001C1.10204 3.00087 0.720437 2.84265 0.439133 2.56116C0.157828 2.27967 -0.000132525 1.89796 8.34261e-08 1.5C0.000132692 1.10204 0.158348 0.720437 0.43984 0.439133C0.721332 0.157828 1.10304 -0.000132525 1.501 8.34261e-08C1.89896 0.000132692 2.28056 0.158348 2.56187 0.43984C2.84317 0.721332 3.00113 1.10304 3.001 1.501Z" fill="#5E6B70"/>
<path d="M3.001 7.001C3.00087 7.39896 2.84265 7.78056 2.56116 8.06187C2.27967 8.34317 1.89796 8.50113 1.5 8.501C1.10204 8.50087 0.720437 8.34265 0.439133 8.06116C0.157828 7.77967 -0.000132525 7.39796 8.34261e-08 7C0.000132692 6.60204 0.158348 6.22044 0.43984 5.93913C0.721332 5.65783 1.10304 5.49987 1.501 5.5C1.89896 5.50013 2.28056 5.65835 2.56187 5.93984C2.84317 6.22133 3.00113 6.60304 3.001 7.001Z" fill="#5E6B70"/>
<path d="M3.001 12.501C3.00093 12.698 2.96206 12.8932 2.88659 13.0752C2.81112 13.2572 2.70054 13.4226 2.56116 13.5619C2.42178 13.7012 2.25633 13.8116 2.07425 13.887C1.89218 13.9623 1.69705 14.0011 1.5 14.001C1.30295 14.0009 1.10785 13.9621 0.925821 13.8866C0.743797 13.8111 0.578421 13.7005 0.439133 13.5612C0.299845 13.4218 0.189374 13.2563 0.114028 13.0743C0.0386811 12.8922 -6.55776e-05 12.697 8.3313e-08 12.5C0.000132692 12.102 0.158348 11.7204 0.43984 11.4391C0.721332 11.1578 1.10304 10.9999 1.501 11C1.89896 11.0001 2.28056 11.1583 2.56187 11.4398C2.84317 11.7213 3.00113 12.103 3.001 12.501Z" fill="#5E6B70"/>
</svg>
