<svg width="20" height="20" viewBox="0 0 20 20" fill="none" xmlns="http://www.w3.org/2000/svg">
<path fill-rule="evenodd" clip-rule="evenodd" d="M5.75 5.5C5.06 5.5 4.5 6.06 4.5 6.75V13.25C4.5 13.94 5.06 14.5 5.75 14.5H14.25C14.94 14.5 15.5 13.94 15.5 13.25V8.75C15.5 8.06 14.94 7.5 14.25 7.5H10.868C10.5431 7.49999 10.2246 7.40952 9.94818 7.23873C9.67178 7.06794 9.44838 6.82358 9.303 6.533L9.132 6.191C9.02819 5.98337 8.86861 5.80875 8.67115 5.6867C8.47368 5.56466 8.24614 5.50001 8.014 5.5H5.75ZM3 6.75C3 6.02065 3.28973 5.32118 3.80546 4.80546C4.32118 4.28973 5.02065 4 5.75 4H8.014C9.056 4 10.008 4.589 10.474 5.52L10.644 5.862C10.687 5.946 10.774 6 10.868 6H14.25C14.9793 6 15.6788 6.28973 16.1945 6.80546C16.7103 7.32118 17 8.02065 17 8.75V13.25C17 13.9793 16.7103 14.6788 16.1945 15.1945C15.6788 15.7103 14.9793 16 14.25 16H5.75C5.02065 16 4.32118 15.7103 3.80546 15.1945C3.28973 14.6788 3 13.9793 3 13.25V6.75Z" fill="#00A093"/>
</svg>
