<svg width="20" height="20" viewBox="0 0 20 20" fill="none" xmlns="http://www.w3.org/2000/svg">
<path d="M10 2C10.1989 2 10.3897 2.07902 10.5303 2.21967C10.671 2.36032 10.75 2.55109 10.75 2.75V3.25C10.75 3.44891 10.671 3.63968 10.5303 3.78033C10.3897 3.92098 10.1989 4 10 4C9.80109 4 9.61032 3.92098 9.46967 3.78033C9.32902 3.63968 9.25 3.44891 9.25 3.25V2.75C9.25 2.55109 9.32902 2.36032 9.46967 2.21967C9.61032 2.07902 9.80109 2 10 2Z" fill="#00A093"/>
<path d="M5.58031 4.1668C5.51071 4.0972 5.42809 4.04199 5.33715 4.00432C5.24621 3.96665 5.14874 3.94727 5.05031 3.94727C4.95188 3.94727 4.85442 3.96665 4.76348 4.00432C4.67254 4.04199 4.58992 4.0972 4.52031 4.1668C4.45071 4.2364 4.3955 4.31903 4.35784 4.40996C4.32017 4.5009 4.30078 4.59837 4.30078 4.6968C4.30078 4.79523 4.32017 4.8927 4.35784 4.98363C4.3955 5.07457 4.45071 5.1572 4.52031 5.2268L4.87331 5.5808C5.0147 5.71749 5.20412 5.79317 5.40077 5.79156C5.59742 5.78994 5.78556 5.71115 5.92469 5.57216C6.06381 5.43317 6.14277 5.2451 6.14457 5.04845C6.14638 4.8518 6.07087 4.66231 5.93431 4.5208L5.58131 4.1668H5.58031Z" fill="#00A093"/>
<path d="M2 9.75C2 9.55109 2.07902 9.36032 2.21967 9.21967C2.36032 9.07902 2.55109 9 2.75 9H3.25C3.44891 9 3.63968 9.07902 3.78033 9.21967C3.92098 9.36032 4 9.55109 4 9.75C4 9.94891 3.92098 10.1397 3.78033 10.2803C3.63968 10.421 3.44891 10.5 3.25 10.5H2.75C2.55109 10.5 2.36032 10.421 2.21967 10.2803C2.07902 10.1397 2 9.94891 2 9.75Z" fill="#00A093"/>
<path d="M16 9.75C16 9.55109 16.079 9.36032 16.2197 9.21967C16.3603 9.07902 16.5511 9 16.75 9H17.25C17.4489 9 17.6397 9.07902 17.7803 9.21967C17.921 9.36032 18 9.55109 18 9.75C18 9.94891 17.921 10.1397 17.7803 10.2803C17.6397 10.421 17.4489 10.5 17.25 10.5H16.75C16.5511 10.5 16.3603 10.421 16.2197 10.2803C16.079 10.1397 16 9.94891 16 9.75Z" fill="#00A093"/>
<path d="M15.657 5.40404C15.7266 5.33444 15.7818 5.25182 15.8194 5.16088C15.8571 5.06994 15.8765 4.97247 15.8765 4.87404C15.8765 4.77561 15.8571 4.67815 15.8194 4.58721C15.7818 4.49627 15.7266 4.41365 15.657 4.34404C15.5874 4.27444 15.5047 4.21923 15.4138 4.18157C15.3229 4.1439 15.2254 4.12451 15.127 4.12451C15.0285 4.12451 14.9311 4.1439 14.8401 4.18157C14.7492 4.21923 14.6666 4.27444 14.597 4.34404L14.243 4.69704C14.1734 4.76665 14.1182 4.84927 14.0805 4.94021C14.0428 5.03115 14.0234 5.12861 14.0234 5.22704C14.0234 5.32547 14.0428 5.42294 14.0805 5.51388C14.1182 5.60482 14.1734 5.68744 14.243 5.75704C14.3126 5.82665 14.3952 5.88186 14.4861 5.91952C14.5771 5.95719 14.6745 5.97658 14.773 5.97658C14.8714 5.97658 14.9689 5.95719 15.0598 5.91952C15.1507 5.88186 15.2334 5.82665 15.303 5.75704L15.657 5.40404Z" fill="#00A093"/>
<path fill-rule="evenodd" clip-rule="evenodd" d="M6.47367 5.99791C7.40889 5.06288 8.6772 4.5376 9.99967 4.5376C11.3221 4.5376 12.5905 5.06288 13.5257 5.99791C14.4757 6.94791 14.9857 8.10091 14.9857 9.29591C14.9857 10.4909 14.4757 11.6439 13.5257 12.5929L13.4727 12.6459C12.9997 13.1009 12.7497 13.5119 12.7497 13.8859V14.9999C12.7497 15.3282 12.685 15.6533 12.5594 15.9566C12.4337 16.2599 12.2496 16.5355 12.0174 16.7677C11.7853 16.9998 11.5097 17.184 11.2064 17.3096C10.9031 17.4353 10.578 17.4999 10.2497 17.4999H9.74967C9.08663 17.4999 8.45075 17.2365 7.9819 16.7677C7.51306 16.2988 7.24967 15.663 7.24967 14.9999V13.8859C7.24967 13.5119 6.99967 13.1009 6.52767 12.6459L6.47367 12.5929C5.52367 11.6429 5.01367 10.4899 5.01367 9.29591C5.01367 8.10091 5.52367 6.94691 6.47367 5.99791ZM12.4657 7.05791C11.8113 6.40451 10.9244 6.03752 9.99967 6.03752C9.07495 6.03752 8.18803 6.40451 7.53367 7.05791C6.82867 7.76491 6.51367 8.54991 6.51367 9.29591C6.51367 10.0409 6.82867 10.8259 7.53367 11.5319L7.56767 11.5649C7.93367 11.9179 8.35567 12.4009 8.58267 12.9999H11.4167C11.6437 12.3999 12.0657 11.9179 12.4317 11.5649L12.4657 11.5319C13.1707 10.8259 13.4857 10.0419 13.4857 9.29591C13.4857 8.54991 13.1707 7.76391 12.4657 7.05791ZM11.2497 14.4999H8.74967V14.9999C8.74967 15.2651 8.85503 15.5195 9.04257 15.707C9.2301 15.8946 9.48446 15.9999 9.74967 15.9999H10.2497C10.5149 15.9999 10.7692 15.8946 10.9568 15.707C11.1443 15.5195 11.2497 15.2651 11.2497 14.9999V14.4999Z" fill="#00A093"/>
</svg>
