<svg width="20" height="20" viewBox="0 0 20 20" fill="none" xmlns="http://www.w3.org/2000/svg">
<path d="M16.4458 10.7853C16.5489 10.7853 16.651 10.765 16.7463 10.7255C16.8416 10.6861 16.9281 10.6282 17.0011 10.5553C17.074 10.4824 17.1318 10.3958 17.1713 10.3005C17.2108 10.2052 17.2311 10.1031 17.2311 10C17.2311 9.89687 17.2108 9.79476 17.1713 9.69948C17.1318 9.6042 17.074 9.51763 17.0011 9.44471C16.9281 9.37179 16.8416 9.31395 16.7463 9.27448C16.651 9.23502 16.5489 9.21471 16.4458 9.21471L10.5635 9.2147L10.5635 3.3324C10.5635 3.22927 10.5432 3.12716 10.5037 3.03188C10.4642 2.93661 10.4064 2.85003 10.3335 2.77711C10.2605 2.70419 10.174 2.64635 10.0787 2.60688C9.98342 2.56742 9.8813 2.54711 9.77817 2.54711C9.67505 2.54711 9.57293 2.56742 9.47766 2.60688C9.38238 2.64635 9.29581 2.70419 9.22289 2.77711C9.14997 2.85003 9.09212 2.9366 9.05266 3.03188C9.01319 3.12716 8.99288 3.22927 8.99288 3.3324L8.99288 9.2147L3.11058 9.2147C3.00745 9.2147 2.90533 9.23502 2.81006 9.27448C2.71478 9.31395 2.62821 9.37179 2.55529 9.44471C2.40802 9.59198 2.32528 9.79173 2.32528 10C2.32528 10.1031 2.34559 10.2052 2.38506 10.3005C2.42452 10.3958 2.48237 10.4824 2.55529 10.5553C2.70256 10.7026 2.9023 10.7853 3.11058 10.7853L8.99288 10.7853L8.99288 16.6676C8.99288 16.7707 9.01319 16.8728 9.05266 16.9681C9.09212 17.0634 9.14997 17.15 9.22289 17.2229C9.29581 17.2958 9.38238 17.3537 9.47766 17.3931C9.57293 17.4326 9.67505 17.4529 9.77817 17.4529C9.8813 17.4529 9.98342 17.4326 10.0787 17.3931C10.174 17.3537 10.2605 17.2958 10.3335 17.2229C10.4064 17.15 10.4642 17.0634 10.5037 16.9681C10.5432 16.8728 10.5635 16.7707 10.5635 16.6676L10.5635 10.7853L16.4458 10.7853Z" fill="#A7F9E7"/>
</svg>
