<svg width="20" height="20" viewBox="0 0 20 20" fill="none" xmlns="http://www.w3.org/2000/svg">
<path d="M10 6.75C10.1989 6.75 10.3897 6.82902 10.5303 6.96967C10.671 7.11032 10.75 7.30109 10.75 7.5V11C10.75 11.1989 10.671 11.3897 10.5303 11.5303C10.3897 11.671 10.1989 11.75 10 11.75C9.80109 11.75 9.61032 11.671 9.46967 11.5303C9.32902 11.3897 9.25 11.1989 9.25 11V7.5C9.25 7.30109 9.32902 7.11032 9.46967 6.96967C9.61032 6.82902 9.80109 6.75 10 6.75Z" fill="#F59126"/>
<path d="M11 13.5C11 13.7652 10.8946 14.0196 10.7071 14.2071C10.5196 14.3946 10.2652 14.5 10 14.5C9.73478 14.5 9.48043 14.3946 9.29289 14.2071C9.10536 14.0196 9 13.7652 9 13.5C9 13.2348 9.10536 12.9804 9.29289 12.7929C9.48043 12.6054 9.73478 12.5 10 12.5C10.2652 12.5 10.5196 12.6054 10.7071 12.7929C10.8946 12.9804 11 13.2348 11 13.5Z" fill="#F59126"/>
<path fill-rule="evenodd" clip-rule="evenodd" d="M9.9999 3.5C8.9549 3.5 8.2159 4.202 7.8479 4.947C7.18576 6.23255 6.51742 7.5149 5.8429 8.794L5.8149 8.846C4.9229 10.549 4.0169 12.278 3.8069 12.702C3.4349 13.454 3.3289 14.452 3.8999 15.316C4.4699 16.179 5.4419 16.5 6.3639 16.5H13.6359C14.5579 16.5 15.5309 16.18 16.1009 15.316C16.6709 14.452 16.5649 13.454 16.1929 12.702C15.9829 12.278 15.0799 10.555 14.1889 8.855L14.1569 8.794C13.4824 7.5149 12.814 6.23255 12.1519 4.947C11.7839 4.202 11.0449 3.5 9.9999 3.5ZM9.1919 5.612C9.5959 4.796 10.4039 4.796 10.8079 5.612C11.0099 6.021 11.9199 7.757 12.8299 9.492C13.7379 11.226 14.6469 12.959 14.8479 13.367C15.2519 14.184 14.8479 15 13.6359 15H6.3639C5.1519 15 4.7469 14.184 5.1519 13.367C5.3539 12.959 6.2649 11.22 7.1749 9.484C8.0829 7.751 8.9899 6.02 9.1919 5.612Z" fill="#F59126"/>
</svg>
