<svg width="20" height="20" viewBox="0 0 20 20" fill="none" xmlns="http://www.w3.org/2000/svg">
<path d="M6.77116 4.69629V5.8361C6.77114 6.04857 6.77284 6.35798 6.82871 6.66817C6.88749 6.99426 6.98821 7.20933 7.10207 7.31801C7.55328 7.74865 8.08448 8.08959 8.53283 8.33232C9.26551 8.72899 9.84049 9.50021 9.84049 10.4257H8.4497C8.4497 10.1 8.23784 9.75509 7.87021 9.55606C7.35816 9.27883 6.7125 8.86951 6.14131 8.32433C5.70952 7.91216 5.53714 7.3459 5.45951 6.91516C5.37907 6.46881 5.38035 6.04587 5.38037 5.8353V4.69629H6.77116Z" fill="#00A093"/>
<path d="M13.5721 4.69629V5.8361C13.5721 6.04857 13.5704 6.35798 13.5145 6.66817C13.4558 6.99426 13.3551 7.20933 13.2412 7.31801C12.79 7.74865 12.2588 8.08959 11.8104 8.33232C11.0778 8.72899 10.5028 9.50021 10.5028 10.4257H11.8936C11.8936 10.1 12.1054 9.75509 12.4731 9.55606C12.9851 9.27883 13.6308 8.86951 14.202 8.32433C14.6337 7.91216 14.8061 7.3459 14.8838 6.91516C14.9642 6.46881 14.9629 6.04587 14.9629 5.8353V4.69629H13.5721Z" fill="#00A093"/>
<path d="M15.0788 4C15.463 4 15.7742 4.31116 15.7742 4.69539C15.7742 5.07963 15.463 5.39079 15.0788 5.39079H5.25692C4.87269 5.39079 4.56152 5.07963 4.56152 4.69539C4.56152 4.31116 4.87269 4 5.25692 4H15.0788Z" fill="#00A093"/>
<path d="M6.77116 16.1533V15.0135C6.77114 14.801 6.77284 14.4916 6.82871 14.1814C6.88749 13.8553 6.98821 13.6403 7.10207 13.5316C7.55328 13.101 8.08448 12.76 8.53283 12.5173C9.26551 12.1206 9.84049 11.3494 9.84049 10.4239H8.4497C8.4497 10.7496 8.23784 11.0945 7.87021 11.2936C7.35816 11.5708 6.7125 11.9801 6.14131 12.5253C5.70952 12.9375 5.53714 13.5037 5.45951 13.9345C5.37907 14.3808 5.38035 14.8037 5.38037 15.0143V16.1533H6.77116Z" fill="#00A093"/>
<path d="M13.5721 16.1533V15.0135C13.5721 14.801 13.5704 14.4916 13.5145 14.1814C13.4558 13.8553 13.3551 13.6403 13.2412 13.5316C12.79 13.101 12.2588 12.76 11.8104 12.5173C11.0778 12.1206 10.5028 11.3494 10.5028 10.4239H11.8936C11.8936 10.7496 12.1054 11.0945 12.4731 11.2936C12.9851 11.5708 13.6308 11.9801 14.202 12.5253C14.6337 12.9375 14.8061 13.5037 14.8838 13.9345C14.9642 14.3808 14.9629 14.8037 14.9629 15.0143V16.1533H13.5721Z" fill="#00A093"/>
<path d="M15.0788 16.8496C15.463 16.8496 15.7742 16.5384 15.7742 16.1542C15.7742 15.77 15.463 15.4588 15.0788 15.4588H5.25692C4.87269 15.4588 4.56152 15.77 4.56152 16.1542C4.56152 16.5384 4.87269 16.8496 5.25692 16.8496H15.0788Z" fill="#00A093"/>
</svg>
