<svg width="18" height="18" viewBox="0 0 18 18" fill="none" xmlns="http://www.w3.org/2000/svg">
<path d="M10.3498 7.4248C10.5288 7.4248 10.7005 7.49592 10.8271 7.62251C10.9537 7.74909 11.0248 7.92078 11.0248 8.0998V11.9248C11.0248 12.1038 10.9537 12.2755 10.8271 12.4021C10.7005 12.5287 10.5288 12.5998 10.3498 12.5998C10.1708 12.5998 9.9991 12.5287 9.87251 12.4021C9.74592 12.2755 9.6748 12.1038 9.6748 11.9248V8.0998C9.6748 7.92078 9.74592 7.74909 9.87251 7.62251C9.9991 7.49592 10.1708 7.4248 10.3498 7.4248Z" fill="white"/>
<path d="M8.32461 8.0998C8.32461 7.92078 8.25349 7.74909 8.12691 7.62251C8.00032 7.49592 7.82863 7.4248 7.64961 7.4248C7.47059 7.4248 7.2989 7.49592 7.17231 7.62251C7.04573 7.74909 6.97461 7.92078 6.97461 8.0998V11.9248C6.97461 12.1038 7.04573 12.2755 7.17231 12.4021C7.2989 12.5287 7.47059 12.5998 7.64961 12.5998C7.82863 12.5998 8.00032 12.5287 8.12691 12.4021C8.25349 12.2755 8.32461 12.1038 8.32461 11.9248V8.0998Z" fill="white"/>
<path fill-rule="evenodd" clip-rule="evenodd" d="M6.52539 4.725C6.52539 4.06859 6.78615 3.43906 7.2503 2.97491C7.71445 2.51076 8.34398 2.25 9.00039 2.25C9.6568 2.25 10.2863 2.51076 10.7505 2.97491C11.2146 3.43906 11.4754 4.06859 11.4754 4.725H14.1754C14.3544 4.725 14.5261 4.79612 14.6527 4.9227C14.7793 5.04929 14.8504 5.22098 14.8504 5.4C14.8504 5.57902 14.7793 5.75071 14.6527 5.8773C14.5261 6.00388 14.3544 6.075 14.1754 6.075H13.5004V10.98C13.5004 12.492 13.5004 13.248 13.2061 13.8258C12.9472 14.3338 12.5342 14.7468 12.0262 15.0057C11.4484 15.3 10.6924 15.3 9.18039 15.3H8.82039C7.30839 15.3 6.55239 15.3 5.97459 15.0057C5.46658 14.7468 5.05354 14.3338 4.79469 13.8258C4.50039 13.248 4.50039 12.492 4.50039 10.98V6.075H3.82539C3.64637 6.075 3.47468 6.00388 3.34809 5.8773C3.22151 5.75071 3.15039 5.57902 3.15039 5.4C3.15039 5.22098 3.22151 5.04929 3.34809 4.9227C3.47468 4.79612 3.64637 4.725 3.82539 4.725H6.52539ZM7.87539 4.725C7.87539 4.42663 7.99392 4.14048 8.2049 3.9295C8.41587 3.71853 8.70202 3.6 9.00039 3.6C9.29876 3.6 9.58491 3.71853 9.79589 3.9295C10.0069 4.14048 10.1254 4.42663 10.1254 4.725H7.87539ZM5.85039 6.075H12.1504V10.98C12.1504 11.7585 12.1495 12.2607 12.118 12.6432C12.0883 13.0104 12.037 13.1463 12.0028 13.2129C11.8734 13.4667 11.6671 13.673 11.4133 13.8024C11.3467 13.8366 11.2108 13.8879 10.8436 13.9176C10.4611 13.9491 9.95889 13.95 9.18039 13.95H8.82039C8.04189 13.95 7.53969 13.9491 7.15719 13.9176C6.78999 13.8879 6.65409 13.8366 6.58749 13.8024C6.33338 13.6732 6.12671 13.4668 5.99709 13.2129C5.96379 13.1463 5.91249 13.0104 5.88279 12.6432C5.85129 12.2607 5.85039 11.7585 5.85039 10.98V6.075Z" fill="white"/>
</svg>
