<svg width="20" height="20" viewBox="0 0 20 20" fill="none" xmlns="http://www.w3.org/2000/svg">
<path d="M16.5 15.75C16.5 15.9489 16.421 16.1397 16.2803 16.2803C16.1397 16.421 15.9489 16.5 15.75 16.5H4.25C4.05109 16.5 3.86032 16.421 3.71967 16.2803C3.57902 16.1397 3.5 15.9489 3.5 15.75C3.5 15.5511 3.57902 15.3603 3.71967 15.2197C3.86032 15.079 4.05109 15 4.25 15H15.75C15.9489 15 16.1397 15.079 16.2803 15.2197C16.421 15.3603 16.5 15.5511 16.5 15.75Z" fill="#00A093"/>
<path d="M9.99985 3.5C9.80093 3.5 9.61017 3.57902 9.46952 3.71967C9.32886 3.86032 9.24985 4.05109 9.24985 4.25V11.19L7.52985 9.47C7.38767 9.33752 7.19963 9.2654 7.00532 9.26883C6.81102 9.27225 6.62564 9.35097 6.48822 9.48838C6.35081 9.62579 6.2721 9.81118 6.26867 10.0055C6.26524 10.1998 6.33737 10.3878 6.46985 10.53L9.46985 13.53C9.61047 13.6705 9.8011 13.7493 9.99985 13.7493C10.1986 13.7493 10.3892 13.6705 10.5298 13.53L13.5298 10.53C13.6623 10.3878 13.7345 10.1998 13.731 10.0055C13.7276 9.81118 13.6489 9.62579 13.5115 9.48838C13.3741 9.35097 13.1887 9.27225 12.9944 9.26883C12.8001 9.2654 12.612 9.33752 12.4698 9.47L10.7498 11.19V4.25C10.7498 4.05109 10.6708 3.86032 10.5302 3.71967C10.3895 3.57902 10.1988 3.5 9.99985 3.5Z" fill="#00A093"/>
</svg>
