<svg width="20" height="20" viewBox="0 0 20 20" fill="none" xmlns="http://www.w3.org/2000/svg">
<path d="M17 10C17 13.866 13.866 17 10 17C6.13401 17 3 13.866 3 10C3 6.13401 6.13401 3 10 3C13.866 3 17 6.13401 17 10Z" fill="white"/>
<path d="M12.7998 10C12.7998 8.4536 11.5464 7.2002 10 7.2002C8.4536 7.2002 7.2002 8.4536 7.2002 10C7.2002 11.5464 8.4536 12.7998 10 12.7998V17C6.13401 17 3 13.866 3 10C3 6.13401 6.13401 3 10 3C13.866 3 17 6.13401 17 10C17 13.866 13.866 17 10 17V12.7998C11.5464 12.7998 12.7998 11.5464 12.7998 10Z" fill="#00B9A3"/>
</svg>
