<svg width="20" height="20" viewBox="0 0 20 20" fill="none" xmlns="http://www.w3.org/2000/svg">
<path d="M10.75 6C10.75 5.80109 10.671 5.61032 10.5303 5.46967C10.3897 5.32902 10.1989 5.25 10 5.25C9.80109 5.25 9.61032 5.32902 9.46967 5.46967C9.32902 5.61032 9.25 5.80109 9.25 6V10C9.25 10.199 9.329 10.39 9.47 10.53L11.47 12.53C11.6106 12.6706 11.8012 12.7495 12 12.7495C12.1988 12.7495 12.3894 12.6706 12.53 12.53C12.6706 12.3894 12.7495 12.1988 12.7495 12C12.7495 11.8012 12.6706 11.6106 12.53 11.47L10.75 9.69V6Z" fill="white"/>
<path fill-rule="evenodd" clip-rule="evenodd" d="M17 10C17 11.8565 16.2625 13.637 14.9497 14.9497C13.637 16.2625 11.8565 17 10 17C8.14348 17 6.36301 16.2625 5.05025 14.9497C3.7375 13.637 3 11.8565 3 10C3 8.14348 3.7375 6.36301 5.05025 5.05025C6.36301 3.7375 8.14348 3 10 3C11.8565 3 13.637 3.7375 14.9497 5.05025C16.2625 6.36301 17 8.14348 17 10ZM15.5 10C15.5 11.4587 14.9205 12.8576 13.8891 13.8891C12.8576 14.9205 11.4587 15.5 10 15.5C8.54131 15.5 7.14236 14.9205 6.11091 13.8891C5.07946 12.8576 4.5 11.4587 4.5 10C4.5 8.54131 5.07946 7.14236 6.11091 6.11091C7.14236 5.07946 8.54131 4.5 10 4.5C11.4587 4.5 12.8576 5.07946 13.8891 6.11091C14.9205 7.14236 15.5 8.54131 15.5 10Z" fill="white"/>
</svg>
