<svg width="20" height="20" viewBox="0 0 20 20" fill="none" xmlns="http://www.w3.org/2000/svg">
<path d="M10.0003 1.87305C8.02158 1.87313 6.1074 2.57731 4.60032 3.85959C3.09324 5.14186 2.0916 6.91856 1.77463 8.87178C1.45765 10.825 1.84603 12.8273 2.87026 14.5203C3.8945 16.2134 5.48775 17.4868 7.36495 18.1126C7.78161 18.1856 7.93786 17.9356 7.93786 17.7168C7.93786 17.5189 7.92744 16.8626 7.92744 16.1647C5.83368 16.5501 5.29201 15.6543 5.12535 15.1856C4.94041 14.7297 4.64724 14.3257 4.27118 14.0085C3.97951 13.8522 3.56285 13.4668 4.26076 13.4564C4.52725 13.4853 4.78284 13.578 5.00587 13.7267C5.22891 13.8754 5.41282 14.0757 5.54201 14.3105C5.65599 14.5153 5.80925 14.6955 5.99301 14.841C6.17676 14.9864 6.38741 15.0941 6.61288 15.158C6.83834 15.2218 7.07419 15.2406 7.30691 15.2131C7.53964 15.1857 7.76466 15.1126 7.96908 14.998C8.00516 14.5744 8.19396 14.1783 8.50035 13.8835C6.64618 13.6752 4.70868 12.9564 4.70868 9.7689C4.69697 8.94069 5.00259 8.13939 5.56285 7.52932C5.30808 6.8095 5.33789 6.01956 5.64618 5.32099C5.64618 5.32099 6.34407 5.10223 7.93785 6.17516C9.30142 5.80013 10.7409 5.80013 12.1045 6.17516C13.6982 5.09182 14.3962 5.32099 14.3962 5.32099C14.7045 6.01955 14.7343 6.80951 14.4795 7.52932C15.0415 8.13834 15.3473 8.94035 15.3337 9.7689C15.3337 12.9668 13.3857 13.6752 11.5316 13.8835C11.7305 14.0851 11.8836 14.3271 11.9807 14.5931C12.0778 14.8591 12.1164 15.1429 12.0941 15.4252C12.0941 16.5398 12.0837 17.4356 12.0837 17.7168C12.0837 17.9356 12.2399 18.196 12.6566 18.1127C14.5305 17.4817 16.1192 16.2054 17.139 14.5114C18.1589 12.8175 18.5436 10.8162 18.2244 8.86491C17.9052 6.91358 16.903 5.13919 15.3966 3.85847C13.8901 2.57776 11.9776 1.87408 10.0003 1.87305V1.87305Z" fill="#A7F9E7"/>
</svg>
