<svg width="20" height="20" viewBox="0 0 20 20" fill="none" xmlns="http://www.w3.org/2000/svg">
<path d="M3 6C3 5.80109 3.07902 5.61032 3.21967 5.46967C3.36032 5.32902 3.55109 5.25 3.75 5.25H16.25C16.4489 5.25 16.6397 5.32902 16.7803 5.46967C16.921 5.61032 17 5.80109 17 6C17 6.19891 16.921 6.38968 16.7803 6.53033C16.6397 6.67098 16.4489 6.75 16.25 6.75H3.75C3.55109 6.75 3.36032 6.67098 3.21967 6.53033C3.07902 6.38968 3 6.19891 3 6Z" fill="#BDFAED"/>
<path d="M6.75 14C6.75 13.8011 6.82902 13.6103 6.96967 13.4697C7.11032 13.329 7.30109 13.25 7.5 13.25H12.5C12.6989 13.25 12.8897 13.329 13.0303 13.4697C13.171 13.6103 13.25 13.8011 13.25 14C13.25 14.1989 13.171 14.3897 13.0303 14.5303C12.8897 14.671 12.6989 14.75 12.5 14.75H7.5C7.30109 14.75 7.11032 14.671 6.96967 14.5303C6.82902 14.3897 6.75 14.1989 6.75 14Z" fill="#BDFAED"/>
<path d="M5.5 9.25C5.30109 9.25 5.11032 9.32902 4.96967 9.46967C4.82902 9.61032 4.75 9.80109 4.75 10C4.75 10.1989 4.82902 10.3897 4.96967 10.5303C5.11032 10.671 5.30109 10.75 5.5 10.75H14.5C14.6989 10.75 14.8897 10.671 15.0303 10.5303C15.171 10.3897 15.25 10.1989 15.25 10C15.25 9.80109 15.171 9.61032 15.0303 9.46967C14.8897 9.32902 14.6989 9.25 14.5 9.25H5.5Z" fill="#BDFAED"/>
</svg>
