<svg width="20" height="20" viewBox="0 0 20 20" fill="none" xmlns="http://www.w3.org/2000/svg">
<path d="M16.25 2.75C16.25 2.55109 16.171 2.36032 16.0303 2.21967C15.8897 2.07902 15.6989 2 15.5 2C15.3011 2 15.1103 2.07902 14.9697 2.21967C14.829 2.36032 14.75 2.55109 14.75 2.75V3.75H13.75C13.5511 3.75 13.3603 3.82902 13.2197 3.96967C13.079 4.11032 13 4.30109 13 4.5C13 4.69891 13.079 4.88968 13.2197 5.03033C13.3603 5.17098 13.5511 5.25 13.75 5.25H14.75V6.25C14.75 6.44891 14.829 6.63968 14.9697 6.78033C15.1103 6.92098 15.3011 7 15.5 7C15.6989 7 15.8897 6.92098 16.0303 6.78033C16.171 6.63968 16.25 6.44891 16.25 6.25V5.25H17.25C17.4489 5.25 17.6397 5.17098 17.7803 5.03033C17.921 4.88968 18 4.69891 18 4.5C18 4.30109 17.921 4.11032 17.7803 3.96967C17.6397 3.82902 17.4489 3.75 17.25 3.75H16.25V2.75Z" fill="#BDFAED"/>
<path fill-rule="evenodd" clip-rule="evenodd" d="M9 3C8.07174 3 7.1815 3.36875 6.52513 4.02513C5.86875 4.6815 5.5 5.57174 5.5 6.5C5.5 7.42826 5.86875 8.3185 6.52513 8.97487C7.1815 9.63125 8.07174 10 9 10C9.92826 10 10.8185 9.63125 11.4749 8.97487C12.1313 8.3185 12.5 7.42826 12.5 6.5C12.5 5.57174 12.1313 4.6815 11.4749 4.02513C10.8185 3.36875 9.92826 3 9 3ZM7 6.5C6.99398 6.23366 7.04123 5.9688 7.13897 5.72098C7.23672 5.47315 7.38299 5.24735 7.5692 5.05683C7.75542 4.86631 7.97782 4.71491 8.22334 4.61153C8.46887 4.50814 8.73258 4.45485 8.99899 4.45478C9.2654 4.45472 9.52913 4.50788 9.77471 4.61114C10.0203 4.7144 10.2428 4.86569 10.4291 5.05611C10.6154 5.24654 10.7618 5.47227 10.8596 5.72004C10.9575 5.96782 11.0049 6.23266 10.999 6.499C10.9874 7.02156 10.7718 7.51884 10.3982 7.88437C10.0245 8.24991 9.52268 8.45465 8.99999 8.45478C8.4773 8.45492 7.97533 8.25042 7.60153 7.88507C7.22773 7.51972 7.01182 7.02256 7 6.5Z" fill="#BDFAED"/>
<path fill-rule="evenodd" clip-rule="evenodd" d="M9.00007 11C7.8812 10.9997 6.78261 11.2987 5.8183 11.8662C4.85399 12.4336 4.05909 13.2487 3.51607 14.227L3.07907 15.013C2.9661 15.2167 2.90825 15.4463 2.91124 15.6792C2.91424 15.9121 2.97798 16.1402 3.09616 16.3409C3.21434 16.5416 3.38287 16.708 3.58507 16.8236C3.78728 16.9392 4.01616 17 4.24907 17H13.7511C13.984 17 14.2129 16.9392 14.4151 16.8236C14.6173 16.708 14.7858 16.5416 14.904 16.3409C15.0222 16.1402 15.0859 15.9121 15.0889 15.6792C15.0919 15.4463 15.034 15.2167 14.9211 15.013L14.4841 14.227C13.9411 13.2487 13.1461 12.4336 12.1818 11.8662C11.2175 11.2987 10.1189 10.9997 9.00007 11ZM4.82707 14.955C5.24079 14.2111 5.84582 13.5914 6.57951 13.1599C7.31321 12.7284 8.14891 12.5009 9.00007 12.5009C9.85124 12.5009 10.6869 12.7284 11.4206 13.1599C12.1543 13.5914 12.7594 14.2111 13.1731 14.955L13.4751 15.5H4.52507L4.82707 14.955Z" fill="#BDFAED"/>
</svg>
