<?xml version="1.0" encoding="UTF-8"?>
<svg id="_레이어_1" data-name="레이어 1" xmlns="http://www.w3.org/2000/svg" viewBox="0 0 800 800">
  <defs>
    <style>
      .cls-1 {
        fill: #001d35;
      }
    </style>
  </defs>
  <path class="cls-1" d="M534.86,271.1c-2.39-27.17-9.65-49.83-17.05-66.9l-29.82,4.7-84.38,5.92-84.38-5.92-29.82-4.7c-7.39,17.07-14.65,39.74-17.05,66.9-2.66,30.2,1.79,53.44,4.5,67.07,3.93,19.74,9.5,24.87,14.23,36.55l2.22-.44c.7-20.61,49.8-26.25,110.28-26.25s109.58,5.64,110.28,26.25l2.22.44c4.73-11.68,10.3-16.8,14.23-36.55,2.71-13.63,7.17-36.87,4.5-67.07Z"/>
  <path class="cls-1" d="M463.33,194.65c12.41-2.97,27.75-7.85,44.32-16.1,21.72-10.82,37.9-23.64,48.96-33.92-3.27,17.11-8.21,36.75-15.78,57.98-6.52,18.3-13.79,34.39-20.91,48.18l-56.59-56.14Z"/>
  <path class="cls-1" d="M349.29,196.82c-11.77-4.95-26.11-12.26-41.11-23.09-19.67-14.21-33.55-29.49-42.79-41.43.45,17.42,2.13,37.6,6.14,59.77,3.46,19.12,8.01,36.18,12.79,50.94l64.96-46.19Z"/>
</svg>