<svg width="20" height="20" viewBox="0 0 20 20" fill="none" xmlns="http://www.w3.org/2000/svg">
<path fill-rule="evenodd" clip-rule="evenodd" d="M17.028 3.73622C17.0174 3.58627 16.9619 3.44298 16.8689 3.32493C16.7758 3.20689 16.6494 3.11954 16.506 3.07422C15.938 2.89522 15.169 2.95622 14.368 3.15122C13.535 3.35322 12.555 3.72822 11.507 4.29322C10.945 4.59622 10.362 4.95422 9.76704 5.37322L7.35504 4.72722C7.21503 4.68963 7.06713 4.69343 6.92923 4.73816C6.79133 4.78288 6.66935 4.86661 6.57804 4.97922L6.54304 5.01222L5.48204 6.07222C5.34121 6.21278 5.26199 6.40353 5.2618 6.60251C5.26162 6.80149 5.34048 6.99239 5.48104 7.13322C5.62161 7.27405 5.81236 7.35327 6.01134 7.35346C6.21031 7.35364 6.40121 7.27478 6.54204 7.13422L7.38804 6.28822L8.28704 6.52922C7.01466 7.63225 5.87499 8.87965 4.89104 10.2462C4.78647 10.3907 4.73678 10.5676 4.75089 10.7454C4.765 10.9232 4.84199 11.0901 4.96804 11.2162L8.85304 15.1012C8.9764 15.2244 9.13881 15.3008 9.31236 15.3172C9.48592 15.3336 9.65977 15.2891 9.80404 15.1912C10.704 14.5832 12.147 13.3212 13.504 11.7362L13.75 12.6502L12.905 13.4962C12.7726 13.6384 12.7004 13.8264 12.7039 14.0207C12.7073 14.215 12.786 14.4004 12.9234 14.5378C13.0608 14.6753 13.2462 14.754 13.4405 14.7574C13.6348 14.7608 13.8229 14.6887 13.965 14.5562L15.026 13.4962L15.059 13.4612C15.172 13.37 15.2561 13.2479 15.301 13.1098C15.3459 12.9716 15.3497 12.8235 15.312 12.6832L14.663 10.2632C16.044 8.33522 17.19 6.00022 17.028 3.73622ZM9.45804 13.5862L6.48804 10.6152C8.09304 8.53022 9.84804 7.05022 11.44 6.06522L11.47 6.09522L13.945 8.57022L13.976 8.60022C13.708 9.02355 13.4177 9.43922 13.105 9.84722C11.868 11.4672 10.435 12.8222 9.45904 13.5852L9.45804 13.5862ZM14.722 4.60822C14.178 4.74122 13.527 4.97022 12.809 5.31322L14.736 7.24122C15.186 6.30422 15.478 5.36622 15.534 4.47422C15.2602 4.49649 14.9886 4.54131 14.722 4.60822Z" fill="white"/>
<path d="M5.30496 12.9674C5.16433 12.8269 4.97371 12.748 4.77496 12.748C4.57621 12.748 4.38559 12.8269 4.24496 12.9674L3.36096 13.8514C3.22848 13.9936 3.15636 14.1816 3.15978 14.3759C3.16321 14.5702 3.24193 14.7556 3.37934 14.893C3.51675 15.0304 3.70214 15.1091 3.89644 15.1126C4.09074 15.116 4.27878 15.0439 4.42096 14.9114L5.30496 14.0284C5.44541 13.8878 5.5243 13.6971 5.5243 13.4984C5.5243 13.2996 5.44541 13.109 5.30496 12.9684V12.9674ZM7.07296 14.7354C6.93233 14.5949 6.74171 14.516 6.54296 14.516C6.34421 14.516 6.15359 14.5949 6.01296 14.7354L5.12796 15.6194C5.05636 15.6886 4.99926 15.7714 4.96 15.8629C4.92074 15.9544 4.90009 16.0529 4.89928 16.1524C4.89846 16.252 4.91748 16.3508 4.95524 16.4429C4.99299 16.5351 5.04872 16.6188 5.11917 16.6892C5.18962 16.7596 5.27339 16.8152 5.36558 16.8529C5.45777 16.8906 5.55654 16.9095 5.65612 16.9086C5.7557 16.9077 5.85411 16.8869 5.94559 16.8476C6.03708 16.8082 6.11981 16.7511 6.18896 16.6794L7.07296 15.7964C7.14265 15.7267 7.19794 15.644 7.23566 15.553C7.27338 15.462 7.2928 15.3644 7.2928 15.2659C7.2928 15.1674 7.27338 15.0698 7.23566 14.9788C7.19794 14.8877 7.14265 14.805 7.07296 14.7354Z" fill="white"/>
</svg>
