<svg width="20" height="20" viewBox="0 0 20 20" fill="none" xmlns="http://www.w3.org/2000/svg">
<path d="M16.4057 14.7772C16.9283 14.7772 17.352 15.201 17.352 15.7236C17.3519 16.2462 16.9283 16.67 16.4057 16.67H9.67629C9.15369 16.67 8.73002 16.2462 8.72991 15.7236C8.72991 15.201 9.15362 14.7772 9.67629 14.7772H16.4057ZM2.27719 3.27719C2.64677 2.9076 3.24584 2.9076 3.61542 3.27719L8.66276 8.32452C9.03234 8.6941 9.03234 9.29317 8.66276 9.66276L3.61542 14.7101C3.24584 15.0797 2.64677 15.0797 2.27719 14.7101C1.9076 14.3405 1.9076 13.7414 2.27719 13.3719L6.65541 8.99364L2.27719 4.61542C1.9076 4.24584 1.9076 3.64677 2.27719 3.27719Z" fill="#A7F9E7"/>
</svg>
