<svg width="20" height="20" viewBox="0 0 20 20" fill="none" xmlns="http://www.w3.org/2000/svg">
<path d="M9.3125 13.3861V3.22574C9.3125 2.82493 9.61776 2.5 9.99432 2.5C10.3709 2.5 10.6761 2.82493 10.6761 3.22574V13.3861C10.6761 13.787 10.3709 14.1119 9.99432 14.1119C9.61776 14.1119 9.3125 13.787 9.3125 13.3861Z" fill="#00A093"/>
<path d="M9.5889 12.8226C9.88563 12.6533 10.2536 12.6818 10.5264 12.9076L14.0873 15.855C14.7364 16.3924 14.3796 17.5002 13.5573 17.5002H6.43549C5.61318 17.5002 5.25638 16.3924 5.90548 15.855L9.46639 12.9076L9.5889 12.8226ZM7.89323 16.0487H12.0996L9.99639 14.3071L7.89323 16.0487Z" fill="#00A093"/>
<path d="M6.62251 3.86146C7.65905 3.58563 8.7481 3.6294 9.76171 3.98903C10.1189 4.11578 10.3123 4.5273 10.1932 4.90755C10.0741 5.2878 9.68748 5.49356 9.33025 5.36681C8.56278 5.09451 7.73849 5.0607 6.95365 5.26948L6.10582 5.49438C5.06928 5.77021 3.98022 5.72645 2.96661 5.36681C2.60938 5.24006 2.41607 4.82854 2.53515 4.44829C2.65423 4.06804 3.04084 3.86228 3.39807 3.98903C4.16554 4.26134 4.98984 4.29514 5.77467 4.08637L6.62251 3.86146Z" fill="#00A093"/>
<path d="M7.04545 10.5349C7.04545 10.3069 6.99056 10.0822 6.88654 9.8829L5.45455 7.13773L4.02255 9.8829C3.91853 10.0822 3.86364 10.3069 3.86364 10.5349C3.86368 11.0833 4.17725 11.5766 4.65554 11.7804L4.86328 11.8692C5.24257 12.0307 5.66652 12.0307 6.04581 11.8692L6.25355 11.7804C6.73184 11.5766 7.04541 11.0833 7.04545 10.5349ZM8.40909 10.5349C8.40905 11.677 7.75577 12.7038 6.75959 13.128L6.55185 13.2168C5.84749 13.5167 5.0616 13.5167 4.35724 13.2168L4.1495 13.128C3.15332 12.7038 2.50004 11.677 2.5 10.5349C2.5 10.0603 2.61369 9.59287 2.83026 9.17794L4.69993 5.59648L4.7674 5.48591C5.10892 5.00339 5.80017 5.00339 6.14169 5.48591L6.20916 5.59648L8.07884 9.17794C8.2954 9.59287 8.40909 10.0603 8.40909 10.5349Z" fill="#00A093"/>
<path d="M7.72727 9.75684C8.10383 9.75684 8.40909 10.0818 8.40909 10.4826C8.40909 10.8834 8.10383 11.2083 7.72727 11.2083H3.18182C2.80526 11.2083 2.5 10.8834 2.5 10.4826C2.5 10.0818 2.80526 9.75684 3.18182 9.75684H7.72727Z" fill="#00A093"/>
<path d="M13.3775 3.86146C12.341 3.58563 11.2519 3.6294 10.2383 3.98903C9.88106 4.11578 9.68775 4.5273 9.80683 4.90755C9.9259 5.2878 10.3125 5.49356 10.6698 5.36681C11.4372 5.09451 12.2615 5.0607 13.0464 5.26948L13.8942 5.49438C14.9307 5.77021 16.0198 5.72645 17.0334 5.36681C17.3906 5.24006 17.5839 4.82854 17.4649 4.44829C17.3458 4.06804 16.9592 3.86228 16.6019 3.98903C15.8345 4.26134 15.0102 4.29514 14.2253 4.08637L13.3775 3.86146Z" fill="#00A093"/>
<path d="M12.9545 10.5349C12.9545 10.3069 13.0094 10.0822 13.1135 9.8829L14.5455 7.13773L15.9775 9.8829C16.0815 10.0822 16.1364 10.3069 16.1364 10.5349C16.1363 11.0833 15.8228 11.5766 15.3445 11.7804L15.1367 11.8692C14.7574 12.0307 14.3335 12.0307 13.9542 11.8692L13.7464 11.7804C13.2682 11.5766 12.9546 11.0833 12.9545 10.5349ZM11.5909 10.5349C11.591 11.677 12.2442 12.7038 13.2404 13.128L13.4482 13.2168C14.1525 13.5167 14.9384 13.5167 15.6428 13.2168L15.8505 13.128C16.8467 12.7038 17.5 11.677 17.5 10.5349C17.5 10.0603 17.3863 9.59287 17.1697 9.17794L15.3001 5.59648L15.2326 5.48591C14.8911 5.00339 14.1998 5.00339 13.8583 5.48591L13.7908 5.59648L11.9212 9.17794C11.7046 9.59287 11.5909 10.0603 11.5909 10.5349Z" fill="#00A093"/>
<path d="M12.2727 9.75684C11.8962 9.75684 11.5909 10.0818 11.5909 10.4826C11.5909 10.8834 11.8962 11.2083 12.2727 11.2083H16.8182C17.1947 11.2083 17.5 10.8834 17.5 10.4826C17.5 10.0818 17.1947 9.75684 16.8182 9.75684H12.2727Z" fill="#00A093"/>
</svg>
