<svg width="20" height="20" viewBox="0 0 20 20" fill="none" xmlns="http://www.w3.org/2000/svg">
<path d="M10 7.75C10.2652 7.75 10.5196 7.64464 10.7071 7.45711C10.8946 7.26957 11 7.01522 11 6.75C11 6.48478 10.8946 6.23043 10.7071 6.04289C10.5196 5.85536 10.2652 5.75 10 5.75C9.73478 5.75 9.48043 5.85536 9.29289 6.04289C9.10536 6.23043 9 6.48478 9 6.75C9 7.01522 9.10536 7.26957 9.29289 7.45711C9.48043 7.64464 9.73478 7.75 10 7.75Z" fill="#BDFAED"/>
<path fill-rule="evenodd" clip-rule="evenodd" d="M8.85 2.75C7.69631 2.75 6.58987 3.2083 5.77409 4.02409C4.9583 4.83987 4.5 5.94631 4.5 7.1C4.49972 7.84513 4.74422 8.56971 5.19591 9.16232C5.6476 9.75494 6.28145 10.1828 7 10.38V13.815C7 14.293 7.17 14.755 7.481 15.117L8.551 16.364C8.88549 16.7541 9.35729 17.0005 9.86856 17.0521C10.3798 17.1036 10.8913 16.9564 11.297 16.641L12.606 15.623C13.0197 15.3017 13.2909 14.8309 13.3612 14.3118C13.4315 13.7927 13.2954 13.2668 12.982 12.847C13.2571 12.4955 13.4068 12.0622 13.4071 11.6158C13.4075 11.1695 13.2585 10.7359 12.984 10.384C13.7062 10.1895 14.3441 9.76239 14.7989 9.1687C15.2538 8.57501 15.5002 7.8479 15.5 7.1C15.5 5.94631 15.0417 4.83987 14.2259 4.02409C13.4101 3.2083 12.3037 2.75 11.15 2.75H8.85ZM11.685 14.44C11.7414 14.3963 11.7878 14.341 11.8211 14.2779C11.8543 14.2148 11.8737 14.1452 11.8779 14.074C11.882 14.0028 11.8709 13.9315 11.8452 13.8649C11.8195 13.7983 11.7799 13.738 11.729 13.688L11.705 13.666L11.643 13.621L11.006 13.222C10.931 13.1749 10.8698 13.1087 10.8287 13.0301C10.7877 12.9516 10.7683 12.8635 10.7725 12.775C10.7766 12.6865 10.8042 12.6007 10.8525 12.5264C10.9007 12.452 10.9679 12.3919 11.047 12.352L11.63 12.06C11.7007 12.0245 11.762 11.9728 11.8089 11.909C11.8557 11.8453 11.8868 11.7713 11.8994 11.6932C11.9121 11.6151 11.9061 11.5351 11.8819 11.4598C11.8576 11.3845 11.8159 11.316 11.76 11.26L11.146 10.646C11.0525 10.5523 11 10.4254 11 10.293V9.5C11 9.36739 11.0527 9.24021 11.1464 9.14645C11.2402 9.05268 11.3674 9 11.5 9H12.1C12.3495 9 12.5966 8.95085 12.8271 8.85537C13.0576 8.75989 13.2671 8.61993 13.4435 8.4435C13.6199 8.26707 13.7599 8.05762 13.8554 7.8271C13.9509 7.59658 14 7.34951 14 7.1C14 6.34413 13.6997 5.61922 13.1653 5.08475C12.6308 4.55027 11.9059 4.25 11.15 4.25H8.85C8.09413 4.25 7.36922 4.55027 6.83475 5.08475C6.30027 5.61922 6 6.34413 6 7.1C6 8.15 6.85 9 7.9 9H8C8.13261 9 8.25979 9.05268 8.35355 9.14645C8.44732 9.24021 8.5 9.36739 8.5 9.5V13.815C8.49999 13.9342 8.54255 14.0494 8.62 14.14L9.69 15.388C9.7735 15.4855 9.8913 15.5471 10.019 15.5602C10.1467 15.5732 10.2745 15.5366 10.376 15.458L11.686 14.439L11.685 14.44Z" fill="#BDFAED"/>
</svg>
