<svg width="17" height="17" viewBox="0 0 17 17" fill="none" xmlns="http://www.w3.org/2000/svg">
<path d="M2.83301 8.50033C2.83301 8.68819 2.90764 8.86835 3.04047 9.00119C3.17331 9.13403 3.35348 9.20866 3.54134 9.20866H8.91759L7.28842 10.8307C7.22203 10.8966 7.16934 10.9749 7.13338 11.0613C7.09742 11.1476 7.0789 11.2402 7.0789 11.3337C7.0789 11.4272 7.09742 11.5198 7.13338 11.6061C7.16934 11.6924 7.22203 11.7707 7.28842 11.8366C7.35427 11.903 7.43262 11.9557 7.51893 11.9916C7.60525 12.0276 7.69783 12.0461 7.79134 12.0461C7.88485 12.0461 7.97743 12.0276 8.06375 11.9916C8.15007 11.9557 8.22841 11.903 8.29426 11.8366L11.1276 9.00324C11.1921 8.93588 11.2426 8.85644 11.2763 8.76949C11.3472 8.59704 11.3472 8.40361 11.2763 8.23116C11.2426 8.14421 11.1921 8.06477 11.1276 7.99741L8.29426 5.16408C8.22821 5.09803 8.14981 5.04564 8.06352 5.0099C7.97723 4.97416 7.88474 4.95576 7.79134 4.95576C7.69794 4.95576 7.60545 4.97416 7.51916 5.0099C7.43287 5.04564 7.35447 5.09803 7.28842 5.16408C7.22238 5.23012 7.16999 5.30853 7.13425 5.39482C7.09851 5.48111 7.08011 5.57359 7.08011 5.66699C7.08011 5.76039 7.09851 5.85288 7.13425 5.93917C7.16999 6.02546 7.22238 6.10387 7.28842 6.16991L8.91759 7.79199H3.54134C3.35348 7.79199 3.17331 7.86662 3.04047 7.99946C2.90764 8.1323 2.83301 8.31246 2.83301 8.50033V8.50033ZM12.0413 1.41699H4.95801C4.39442 1.41699 3.85392 1.64088 3.45541 2.03939C3.05689 2.43791 2.83301 2.97841 2.83301 3.54199V5.66699C2.83301 5.85485 2.90764 6.03502 3.04047 6.16786C3.17331 6.3007 3.35348 6.37533 3.54134 6.37533C3.7292 6.37533 3.90937 6.3007 4.04221 6.16786C4.17505 6.03502 4.24967 5.85485 4.24967 5.66699V3.54199C4.24967 3.35413 4.3243 3.17396 4.45714 3.04113C4.58998 2.90829 4.77015 2.83366 4.95801 2.83366H12.0413C12.2292 2.83366 12.4094 2.90829 12.5422 3.04113C12.675 3.17396 12.7497 3.35413 12.7497 3.54199V13.4587C12.7497 13.6465 12.675 13.8267 12.5422 13.9595C12.4094 14.0924 12.2292 14.167 12.0413 14.167H4.95801C4.77015 14.167 4.58998 14.0924 4.45714 13.9595C4.3243 13.8267 4.24967 13.6465 4.24967 13.4587V11.3337C4.24967 11.1458 4.17505 10.9656 4.04221 10.8328C3.90937 10.7 3.7292 10.6253 3.54134 10.6253C3.35348 10.6253 3.17331 10.7 3.04047 10.8328C2.90764 10.9656 2.83301 11.1458 2.83301 11.3337V13.4587C2.83301 14.0222 3.05689 14.5627 3.45541 14.9613C3.85392 15.3598 4.39442 15.5837 4.95801 15.5837H12.0413C12.6049 15.5837 13.1454 15.3598 13.5439 14.9613C13.9425 14.5627 14.1663 14.0222 14.1663 13.4587V3.54199C14.1663 2.97841 13.9425 2.43791 13.5439 2.03939C13.1454 1.64088 12.6049 1.41699 12.0413 1.41699Z" fill="#849197"/>
</svg>
