<svg width="22" height="30" viewBox="0 0 22 30" fill="none" xmlns="http://www.w3.org/2000/svg">
<g clip-path="url(#clip0_logo_card)">
<path d="M1 15.5L10.5 29L16.5 24L14 13L21 15.5V3.5L1 3.5V15.5Z" fill="#D3FCF3"/>
<path d="M9.14615 21.4127C8.58695 20.6989 6.83788 18.0459 6.83788 14.2567C6.83788 11.4588 7.95297 9.77093 8.46763 9.19141C8.46763 9.19141 4.48838 9.55361 4.52962 14.3598C4.55491 17.3226 6.83788 20.1974 9.1467 21.4127H9.14615Z" fill="#00A093"/>
<path d="M21.7658 15.3031C22.16 10.0852 21.9395 4.6209 21.9285 4.36345L21.8928 3.50977H17.2834L18.1582 5.29293H20.1971C20.2367 6.78521 20.2878 10.03 20.1201 13.3957C19.1584 12.3258 17.9696 11.0865 17.1163 10.4764C15.9291 9.62712 13.6231 8.82693 11.7294 10.1465C9.67297 11.5791 9.97978 15.0529 10.1178 15.9702C10.5654 18.9464 13.9629 22.5144 15.889 24.3282C15.6086 24.6068 15.315 24.8821 15.007 25.1534C14.6046 25.5084 14.2037 25.8349 13.8177 26.1314C13.8172 26.1314 9.14621 24.341 6.13414 21.4144C5.1829 20.4905 4.4461 19.5125 3.87261 18.5569C2.56782 16.3842 1.86951 13.8928 1.80133 11.3501C1.7315 8.77065 1.77054 6.47873 1.80188 5.29348H3.9034L4.04746 3.51032H0.107246L0.0715059 4.36401C0.0594092 4.6521 -0.217165 11.485 0.405814 17.1782C0.608158 19.0288 1.28227 20.851 2.40891 22.5946C3.29362 23.9637 4.45875 25.2872 5.87131 26.5287C8.25766 28.625 10.517 29.7607 10.6121 29.808L11.0003 30.0014L11.3885 29.808C11.4836 29.7607 13.7429 28.625 16.1293 26.5287C16.5087 26.1955 16.8694 25.8561 17.2119 25.5117C17.2119 25.5117 17.2279 25.495 17.2592 25.4627C17.5649 25.1534 17.8558 24.8403 18.1313 24.5238C18.1406 24.5137 18.1489 24.5048 18.1582 24.4942C18.6069 24.0011 18.983 23.4689 18.983 23.4689L15.7246 18.8812L19.7594 22.3271C19.7594 22.3271 20.0706 21.9092 20.5204 20.924C20.9009 20.0904 21.1274 19.3765 21.1274 19.3765L17.7217 14.6551L21.4997 17.8497L21.6674 16.2454L21.6861 16.2588C21.7147 15.9445 21.741 15.6286 21.7652 15.3109L21.7663 15.3026L21.7658 15.3031Z" fill="#00A093"/>
<path d="M5.25874 5.41914C5.43799 6.20205 6.11265 6.46451 6.15774 6.48012L6.21163 6.11568C6.08131 6.0555 6.00433 5.98139 5.93395 5.88164C5.81244 5.7089 5.80364 5.53281 5.80034 5.4665C5.79044 5.27091 5.89326 5.11266 5.89326 5.11266C6.10166 5.4665 6.39253 5.67546 6.66085 5.76407C6.66085 5.76407 6.52614 6.37703 6.55418 7.09475C6.58277 7.8264 6.94018 8.55471 6.94018 8.55471C7.76495 8.04595 8.19658 6.62165 8.19658 6.62165C7.74296 6.01092 7.89416 5.47932 7.89416 5.47932C7.99973 5.45257 8.10421 5.42192 8.20978 5.38737C8.57048 6.04714 9.45408 6.48959 10.1628 6.11791C10.8331 5.76629 11.0212 5.09037 10.9926 4.47685C10.9711 4.83181 10.8249 5.19067 10.4433 5.39127C9.98854 5.62977 9.43924 5.38737 9.18741 4.97669C9.33532 4.90481 9.49147 4.82568 9.65973 4.73931C10.4361 4.34032 11.0382 3.88896 11.4748 3.51004C11.6375 3.63765 12.2649 4.15978 12.4073 5.06585C12.5288 5.83762 12.2891 6.82115 11.4748 7.37615C10.777 7.85148 9.85657 7.87711 9.10383 7.44692C9.63059 7.95011 10.4339 8.5458 11.4748 8.64944C12.7158 8.77315 13.3338 8.10223 14.6408 8.10725C15.3347 8.11004 16.3156 8.30396 17.5022 9.19164C17.5633 7.16663 16.408 4.71646 15.7966 3.81151C14.7057 2.19607 13.8331 1.71741 13.8331 1.71741C13.8331 1.71741 14.7618 1.28443 15.4183 0C15.4183 0 13.1733 0.834742 10.9409 0.781804C8.66175 0.727195 7.32837 2.10524 7.32837 2.10524C7.32837 2.10524 6.93248 1.43377 7.28328 0.410684C7.10953 0.476438 6.08021 0.812453 5.63483 2.10524C5.32637 3.00072 5.43744 4.00431 5.52487 4.26677C5.49022 4.30299 5.10973 4.76661 5.25929 5.41914H5.25874Z" fill="#00A093"/>
</g>
<defs>
<clipPath id="clip0_logo_card">
<rect width="22" height="30" fill="white"/>
</clipPath>
</defs>
</svg>
