<svg width="20" height="20" viewBox="0 0 20 20" fill="none" xmlns="http://www.w3.org/2000/svg">
<path fill-rule="evenodd" clip-rule="evenodd" d="M10 7.24958C9.31 7.24958 8.75 7.80958 8.75 8.49958C8.75 8.69849 8.67098 8.88926 8.53033 9.02991C8.38968 9.17056 8.19891 9.24958 8 9.24958C7.80109 9.24958 7.61032 9.17056 7.46967 9.02991C7.32902 8.88926 7.25 8.69849 7.25 8.49958C7.25025 7.99961 7.3868 7.50918 7.64496 7.08102C7.90312 6.65286 8.27311 6.30318 8.71515 6.06959C9.15719 5.83599 9.65455 5.72733 10.1537 5.75528C10.6529 5.78323 11.135 5.94673 11.5482 6.22821C11.9614 6.50969 12.2901 6.89849 12.4988 7.35279C12.7076 7.80709 12.7885 8.30971 12.733 8.80657C12.6774 9.30344 12.4874 9.77576 12.1835 10.1727C11.8796 10.5697 11.4732 10.8763 11.008 11.0596C10.9225 11.0908 10.8452 11.1411 10.782 11.2066C10.7692 11.2203 10.7585 11.2358 10.75 11.2526C10.7496 11.4515 10.6702 11.6421 10.5293 11.7825C10.3883 11.9228 10.1974 12.0015 9.9985 12.0011C9.79959 12.0007 9.60898 11.9213 9.46861 11.7803C9.32824 11.6394 9.2496 11.4485 9.25 11.2496C9.25 10.3846 9.946 9.86458 10.458 9.66358C10.7284 9.55643 10.953 9.35843 11.0932 9.10362C11.2334 8.84881 11.2804 8.55312 11.2262 8.26739C11.172 7.98165 11.0199 7.72374 10.7961 7.53798C10.5723 7.35223 10.2908 7.25025 10 7.24958Z" fill="#4A4A4A"/>
<path d="M10 14.5C10.2652 14.5 10.5196 14.3946 10.7071 14.2071C10.8946 14.0196 11 13.7652 11 13.5C11 13.2348 10.8946 12.9804 10.7071 12.7929C10.5196 12.6054 10.2652 12.5 10 12.5C9.73478 12.5 9.48043 12.6054 9.29289 12.7929C9.10536 12.9804 9 13.2348 9 13.5C9 13.7652 9.10536 14.0196 9.29289 14.2071C9.48043 14.3946 9.73478 14.5 10 14.5Z" fill="#4A4A4A"/>
<path fill-rule="evenodd" clip-rule="evenodd" d="M10 17C11.8565 17 13.637 16.2625 14.9497 14.9497C16.2625 13.637 17 11.8565 17 10C17 8.14348 16.2625 6.36301 14.9497 5.05025C13.637 3.7375 11.8565 3 10 3C8.14348 3 6.36301 3.7375 5.05025 5.05025C3.7375 6.36301 3 8.14348 3 10C3 11.8565 3.7375 13.637 5.05025 14.9497C6.36301 16.2625 8.14348 17 10 17ZM10 15.5C11.4587 15.5 12.8576 14.9205 13.8891 13.8891C14.9205 12.8576 15.5 11.4587 15.5 10C15.5 8.54131 14.9205 7.14236 13.8891 6.11091C12.8576 5.07946 11.4587 4.5 10 4.5C8.54131 4.5 7.14236 5.07946 6.11091 6.11091C5.07946 7.14236 4.5 8.54131 4.5 10C4.5 11.4587 5.07946 12.8576 6.11091 13.8891C7.14236 14.9205 8.54131 15.5 10 15.5Z" fill="#4A4A4A"/>
</svg>
