<svg width="24" height="24" viewBox="0 0 24 24" fill="none" xmlns="http://www.w3.org/2000/svg">
<path fill-rule="evenodd" clip-rule="evenodd" d="M8.70158 17.3084L5.76638 16.9712C3.54038 16.7156 2.91038 13.7804 4.83278 12.632L4.91078 12.5864C5.4255 12.2787 5.85162 11.8427 6.14755 11.3211C6.44347 10.7995 6.59908 10.2101 6.59918 9.61041V8.99961C6.59918 7.56744 7.16811 6.19393 8.1808 5.18123C9.1935 4.16854 10.567 3.59961 11.9992 3.59961C13.4313 3.59961 14.8049 4.16854 15.8176 5.18123C16.8303 6.19393 17.3992 7.56744 17.3992 8.99961V9.61161C17.3992 10.8308 18.0412 11.9612 19.0888 12.5864L19.1668 12.632C21.0892 13.7804 20.458 16.7156 18.2332 16.9712L15.1816 17.3216V17.7596C15.1816 18.6189 14.8402 19.443 14.2326 20.0506C13.625 20.6583 12.8009 20.9996 11.9416 20.9996C11.0823 20.9996 10.2582 20.6583 9.65055 20.0506C9.04294 19.443 8.70158 18.6189 8.70158 17.7596V17.3084ZM13.3816 17.3996H10.5016V17.7596C10.5016 18.1415 10.6533 18.5078 10.9233 18.7778C11.1934 19.0479 11.5597 19.1996 11.9416 19.1996C12.3235 19.1996 12.6898 19.0479 12.9598 18.7778C13.2299 18.5078 13.3816 18.1415 13.3816 17.7596V17.3996ZM9.59918 15.5996H14.3992L18.028 15.182C18.1406 15.169 18.2463 15.121 18.3303 15.0448C18.4142 14.9686 18.4722 14.8681 18.496 14.7572C18.5198 14.6464 18.5083 14.5309 18.4631 14.4269C18.4179 14.323 18.3413 14.2358 18.244 14.1776L18.166 14.132C17.8781 13.9601 17.6073 13.7612 17.3572 13.538L17.2696 13.4576C16.7433 12.9646 16.3235 12.369 16.0362 11.7075C15.7489 11.0461 15.6002 10.3328 15.5992 9.61161V8.99961C15.5992 8.52685 15.5061 8.05872 15.3251 7.62195C15.1442 7.18518 14.8791 6.78832 14.5448 6.45402C14.2105 6.11973 13.8136 5.85456 13.3768 5.67364C12.9401 5.49273 12.4719 5.39961 11.9992 5.39961C11.5264 5.39961 11.0583 5.49273 10.6215 5.67364C10.1847 5.85456 9.78789 6.11973 9.45359 6.45402C9.1193 6.78832 8.85413 7.18518 8.67321 7.62195C8.4923 8.05872 8.39918 8.52685 8.39918 8.99961V9.61161C8.39831 10.3327 8.24976 11.0459 7.96268 11.7074C7.6756 12.3688 7.25608 12.9645 6.72998 13.4576L6.64238 13.538C6.39137 13.7602 6.12065 13.959 5.83358 14.132L5.75558 14.1776C5.65847 14.236 5.58205 14.3233 5.537 14.4273C5.49195 14.5313 5.48052 14.6468 5.50432 14.7576C5.52812 14.8684 5.58596 14.969 5.66973 15.0453C5.75351 15.1216 5.85905 15.1698 5.97158 15.1832L9.59918 15.5996Z" fill="#F59126"/>
</svg>
