<svg width="20" height="20" viewBox="0 0 20 20" fill="none" xmlns="http://www.w3.org/2000/svg">
<path d="M13.074 8.48225C13.1936 8.32911 13.2491 8.13551 13.2288 7.94224C13.2086 7.74897 13.1141 7.57112 12.9652 7.44615C12.8164 7.32118 12.6249 7.25886 12.431 7.27231C12.2372 7.28576 12.0561 7.37393 11.926 7.51825L9.41296 10.5082L8.61996 9.34325C8.5057 9.18487 8.33417 9.07731 8.14185 9.04342C7.94952 9.00954 7.75156 9.05201 7.59006 9.16181C7.42856 9.2716 7.31625 9.44006 7.27701 9.63137C7.23778 9.82268 7.27471 10.0217 7.37996 10.1862L8.56396 11.9282C8.64846 12.0526 8.76064 12.1558 8.8917 12.2295C9.02276 12.3033 9.16912 12.3456 9.31931 12.3533C9.4695 12.3609 9.61941 12.3337 9.75729 12.2736C9.89517 12.2136 10.0173 12.1224 10.114 12.0072L13.074 8.48225Z" fill="#00A093"/>
<path fill-rule="evenodd" clip-rule="evenodd" d="M11.0929 2.91358C10.7827 2.66545 10.3972 2.53027 9.99993 2.53027C9.60265 2.53027 9.2172 2.66545 8.90693 2.91358L8.58993 3.16758C7.60324 3.95618 6.52268 4.61956 5.37293 5.14258L4.52593 5.52758C4.21445 5.66703 3.95181 5.89649 3.77182 6.18644C3.59183 6.47639 3.50271 6.81356 3.51593 7.15458C3.79593 13.4046 7.89593 16.2026 9.24893 16.9566C9.47816 17.0857 9.73683 17.1536 9.99993 17.1536C10.263 17.1536 10.5217 17.0857 10.7509 16.9566C12.1029 16.2036 16.2049 13.4076 16.4849 7.17358C16.498 6.83412 16.4097 6.49846 16.2312 6.2094C16.0528 5.92034 15.7923 5.69098 15.4829 5.55058L14.5829 5.13458C13.4633 4.61734 12.4103 3.96661 11.4469 3.19658L11.0929 2.91358ZM9.84293 4.08458C9.88731 4.04895 9.94252 4.02954 9.99943 4.02954C10.0563 4.02954 10.1116 4.04895 10.1559 4.08458L10.5099 4.36858C11.5683 5.21421 12.725 5.92874 13.9549 6.49658L14.8549 6.91258C14.8936 6.92826 14.9266 6.95509 14.95 6.98963C14.9733 7.02418 14.9858 7.06489 14.9859 7.10658C14.7399 12.5956 11.1589 15.0126 10.0209 15.6466C10.0149 15.6503 10.008 15.6524 10.0009 15.6526C9.99627 15.6539 9.98893 15.6519 9.97893 15.6466C8.84293 15.0126 5.26093 12.5936 5.01393 7.08658C5.01093 7.02058 5.05093 6.93658 5.14693 6.89258L5.99293 6.50758C7.25603 5.93297 8.44307 5.20409 9.52693 4.33758L9.84293 4.08458Z" fill="#00A093"/>
</svg>
