<svg width="20" height="20" viewBox="0 0 20 20" fill="none" xmlns="http://www.w3.org/2000/svg">
<path d="M13.9695 15.0295C14.0391 15.0991 14.1218 15.1543 14.2127 15.192C14.3036 15.2297 14.4011 15.2491 14.4995 15.2491C14.598 15.2491 14.6954 15.2297 14.7864 15.192C14.8773 15.1543 14.9599 15.0991 15.0295 15.0295C15.0991 14.9599 15.1543 14.8773 15.192 14.7864C15.2297 14.6954 15.2491 14.598 15.2491 14.4995C15.2491 14.4011 15.2297 14.3036 15.192 14.2127C15.1543 14.1218 15.0991 14.0391 15.0295 13.9695L11.0595 9.99953L15.0295 6.02953C15.0991 5.95993 15.1543 5.8773 15.192 5.78637C15.2297 5.69543 15.2491 5.59796 15.2491 5.49953C15.2491 5.4011 15.2297 5.30364 15.192 5.2127C15.1543 5.12176 15.0991 5.03913 15.0295 4.96953C14.9599 4.89993 14.8773 4.84472 14.7864 4.80705C14.6954 4.76939 14.598 4.75 14.4995 4.75C14.4011 4.75 14.3036 4.76939 14.2127 4.80705C14.1218 4.84472 14.0391 4.89993 13.9695 4.96953L9.99953 8.93953L6.02953 4.96953C5.95993 4.89993 5.8773 4.84472 5.78637 4.80705C5.69543 4.76939 5.59796 4.75 5.49953 4.75C5.30074 4.75 5.1101 4.82897 4.96953 4.96953C4.89993 5.03913 4.84472 5.12176 4.80705 5.2127C4.76939 5.30364 4.75 5.4011 4.75 5.49953C4.75 5.69832 4.82897 5.88897 4.96953 6.02953L8.93953 9.99953L4.96953 13.9695C4.89993 14.0391 4.84472 14.1218 4.80705 14.2127C4.76939 14.3036 4.75 14.4011 4.75 14.4995C4.75 14.598 4.76939 14.6954 4.80705 14.7864C4.84472 14.8773 4.89993 14.9599 4.96953 15.0295C5.03913 15.0991 5.12176 15.1543 5.2127 15.192C5.30364 15.2297 5.4011 15.2491 5.49953 15.2491C5.59796 15.2491 5.69543 15.2297 5.78637 15.192C5.8773 15.1543 5.95993 15.0991 6.02953 15.0295L9.99953 11.0595L13.9695 15.0295Z" fill="#5E6B70"/>
</svg>
