<svg width="20" height="20" viewBox="0 0 20 20" fill="none" xmlns="http://www.w3.org/2000/svg">
<path fill-rule="evenodd" clip-rule="evenodd" d="M7.71953 14.5295C7.57908 14.3889 7.50019 14.1983 7.50019 13.9995C7.50019 13.8008 7.57908 13.6102 7.71953 13.4695L11.1895 9.99953L7.71953 6.52953C7.64993 6.45993 7.59472 6.3773 7.55705 6.28637C7.51939 6.19543 7.5 6.09796 7.5 5.99953C7.5 5.9011 7.51939 5.80364 7.55705 5.7127C7.59472 5.62176 7.64993 5.53913 7.71953 5.46953C7.78913 5.39993 7.87176 5.34472 7.9627 5.30705C8.05364 5.26939 8.1511 5.25 8.24953 5.25C8.34796 5.25 8.44543 5.26939 8.53637 5.30705C8.6273 5.34472 8.70993 5.39993 8.77953 5.46953L12.7795 9.46953C12.92 9.61016 12.9989 9.80078 12.9989 9.99953C12.9989 10.1983 12.92 10.3889 12.7795 10.5295L8.77953 14.5295C8.63891 14.67 8.44828 14.7489 8.24953 14.7489C8.05078 14.7489 7.86016 14.67 7.71953 14.5295Z" fill="white" fill-opacity="0.5"/>
</svg>
