<svg width="31" height="31" viewBox="0 0 31 31" fill="none" xmlns="http://www.w3.org/2000/svg">
<path d="M15.4997 2.90234C12.4326 2.90247 9.46564 3.99395 7.12966 5.98148C4.79369 7.96901 3.24115 10.7229 2.74984 13.7504C2.25853 16.7779 2.86052 19.8814 4.44808 22.5057C6.03564 25.1299 8.50519 27.1036 11.4148 28.0737C12.0607 28.1867 12.3029 27.7992 12.3029 27.4601C12.3029 27.1534 12.2867 26.1362 12.2867 25.0544C9.04138 25.6518 8.20179 24.2633 7.94346 23.5368C7.65681 22.8301 7.2024 22.2039 6.6195 21.7122C6.16742 21.4701 5.52158 20.8727 6.60334 20.8565C7.0164 20.9014 7.41257 21.0451 7.75827 21.2756C8.10398 21.506 8.38904 21.8164 8.58929 22.1805C8.76596 22.4978 9.0035 22.7772 9.28833 23.0026C9.57315 23.228 9.89966 23.395 10.2491 23.494C10.5986 23.593 10.9642 23.622 11.3249 23.5795C11.6856 23.5369 12.0344 23.4236 12.3512 23.2461C12.4072 22.5894 12.6998 21.9755 13.1747 21.5185C10.3008 21.1956 7.29763 20.0815 7.29763 15.1409C7.27948 13.8572 7.75318 12.6152 8.62158 11.6696C8.2267 10.5539 8.2729 9.32944 8.75075 8.24665C8.75075 8.24665 9.83248 7.90758 12.3028 9.57061C14.4164 8.98933 16.6476 8.98933 18.7612 9.57061C21.2315 7.89144 22.3133 8.24665 22.3133 8.24665C22.7912 9.32942 22.8374 10.5539 22.4424 11.6696C23.3134 12.6136 23.7876 13.8567 23.7664 15.1409C23.7664 20.0977 20.7471 21.1956 17.8731 21.5185C18.1814 21.831 18.4188 22.2061 18.5693 22.6184C18.7197 23.0307 18.7796 23.4706 18.745 23.9081C18.745 25.6357 18.7289 27.0242 18.7289 27.4602C18.7289 27.7993 18.9711 28.2029 19.6169 28.0737C22.5214 27.0958 24.9839 25.1174 26.5647 22.4918C28.1455 19.8662 28.7417 16.7643 28.247 13.7397C27.7523 10.7152 26.1988 7.96487 23.8639 5.97975C21.5289 3.99464 18.5645 2.90394 15.4997 2.90234V2.90234Z" fill="#00A093"/>
</svg>
