<svg width="20" height="20" viewBox="0 0 20 20" fill="none" xmlns="http://www.w3.org/2000/svg">
<path fill-rule="evenodd" clip-rule="evenodd" d="M12.3225 13.383C11.6271 13.9102 10.8162 14.2643 9.95687 14.4161C9.09752 14.5679 8.21438 14.5131 7.38041 14.2561C6.54645 13.9992 5.7856 13.5474 5.16073 12.9383C4.53586 12.3291 4.06491 11.58 3.7868 10.7529C3.50868 9.9257 3.43138 9.04424 3.56128 8.1813C3.69117 7.31837 4.02455 6.49872 4.53385 5.7901C5.04315 5.08148 5.71375 4.50421 6.49026 4.106C7.26677 3.70779 8.12689 3.50007 8.99955 3.5C10.0234 3.49994 11.027 3.78568 11.8973 4.32507C12.7676 4.86447 13.4701 5.63608 13.9256 6.55306C14.3811 7.47004 14.5716 8.49597 14.4757 9.51536C14.3798 10.5347 14.0012 11.5071 13.3825 12.323L16.2795 15.22C16.3491 15.2896 16.4044 15.3722 16.442 15.4632C16.4797 15.5541 16.4991 15.6516 16.4991 15.75C16.4991 15.8484 16.4797 15.9459 16.442 16.0368C16.4044 16.1278 16.3491 16.2104 16.2795 16.28C16.2099 16.3496 16.1273 16.4048 16.0364 16.4425C15.9454 16.4801 15.848 16.4995 15.7495 16.4995C15.6511 16.4995 15.5537 16.4801 15.4627 16.4425C15.3718 16.4048 15.2891 16.3496 15.2195 16.28L12.3225 13.383ZM12.9995 9C12.9995 11.21 11.2095 13 8.99955 13C6.78955 13 4.99955 11.21 4.99955 9C4.99955 6.79 6.78955 5 8.99955 5C11.2095 5 12.9995 6.79 12.9995 9Z" fill="#001D35"/>
</svg>
