<svg width="20" height="20" viewBox="0 0 20 20" fill="none" xmlns="http://www.w3.org/2000/svg">
<path fill-rule="evenodd" clip-rule="evenodd" d="M15.655 4.3438C15.4048 4.09362 15.1078 3.89517 14.781 3.75977C14.4541 3.62437 14.1038 3.55469 13.75 3.55469C13.3962 3.55469 13.0459 3.62437 12.719 3.75977C12.3922 3.89517 12.0952 4.09362 11.845 4.3438L11.246 4.9428L11.237 4.9338L10.177 5.9938L10.186 6.0038L4.306 11.8838C3.79021 12.3993 3.50029 13.0986 3.5 13.8278V15.7498C3.5 15.9487 3.57902 16.1395 3.71967 16.2801C3.86032 16.4208 4.05109 16.4998 4.25 16.4998H6.172C6.90123 16.4995 7.6005 16.2096 8.116 15.6938L15.656 8.1538C15.9062 7.90363 16.1046 7.60664 16.24 7.27978C16.3754 6.95292 16.4451 6.60259 16.4451 6.2488C16.4451 5.895 16.3754 5.54467 16.24 5.21781C16.1046 4.89095 15.9062 4.59396 15.656 4.3438H15.655ZM11.246 7.0638L5.366 12.9438C5.24993 13.0599 5.15787 13.1977 5.09507 13.3494C5.03228 13.5011 4.99997 13.6636 5 13.8278V14.9998H6.172C6.503 14.9998 6.822 14.8678 7.055 14.6338L12.935 8.7538L11.246 7.0638ZM13.996 7.6928L14.595 7.0938C14.8043 6.86676 14.9176 6.56758 14.9114 6.25887C14.9051 5.95015 14.7796 5.65583 14.5613 5.43749C14.343 5.21915 14.0486 5.09372 13.7399 5.08744C13.4312 5.08116 13.132 5.19452 12.905 5.4038L12.307 6.0038L13.996 7.6928Z" fill="#5E6B70"/>
</svg>
