<svg width="20" height="20" viewBox="0 0 20 20" fill="none" xmlns="http://www.w3.org/2000/svg">
<path d="M10 6C10.1989 6 10.3897 6.07902 10.5303 6.21967C10.671 6.36032 10.75 6.55109 10.75 6.75V10.25C10.75 10.4489 10.671 10.6397 10.5303 10.7803C10.3897 10.921 10.1989 11 10 11C9.80109 11 9.61032 10.921 9.46967 10.7803C9.32902 10.6397 9.25 10.4489 9.25 10.25V6.75C9.25 6.55109 9.32902 6.36032 9.46967 6.21967C9.61032 6.07902 9.80109 6 10 6Z" fill="#4A4A4A"/>
<path d="M11 13C11 13.2652 10.8946 13.5196 10.7071 13.7071C10.5196 13.8946 10.2652 14 10 14C9.73478 14 9.48043 13.8946 9.29289 13.7071C9.10536 13.5196 9 13.2652 9 13C9 12.7348 9.10536 12.4804 9.29289 12.2929C9.48043 12.1054 9.73478 12 10 12C10.2652 12 10.5196 12.1054 10.7071 12.2929C10.8946 12.4804 11 12.7348 11 13Z" fill="#4A4A4A"/>
<path fill-rule="evenodd" clip-rule="evenodd" d="M17 10C17 11.8565 16.2625 13.637 14.9497 14.9497C13.637 16.2625 11.8565 17 10 17C8.14348 17 6.36301 16.2625 5.05025 14.9497C3.7375 13.637 3 11.8565 3 10C3 8.14348 3.7375 6.36301 5.05025 5.05025C6.36301 3.7375 8.14348 3 10 3C11.8565 3 13.637 3.7375 14.9497 5.05025C16.2625 6.36301 17 8.14348 17 10ZM15.5 10C15.5 11.4587 14.9205 12.8576 13.8891 13.8891C12.8576 14.9205 11.4587 15.5 10 15.5C8.54131 15.5 7.14236 14.9205 6.11091 13.8891C5.07946 12.8576 4.5 11.4587 4.5 10C4.5 8.54131 5.07946 7.14236 6.11091 6.11091C7.14236 5.07946 8.54131 4.5 10 4.5C11.4587 4.5 12.8576 5.07946 13.8891 6.11091C14.9205 7.14236 15.5 8.54131 15.5 10Z" fill="#4A4A4A"/>
</svg>
