<svg width="20" height="20" viewBox="0 0 20 20" fill="none" xmlns="http://www.w3.org/2000/svg">
<path d="M17 10C17 13.866 13.866 17 10 17C6.13401 17 3 13.866 3 10C3 6.13401 6.13401 3 10 3C13.866 3 17 6.13401 17 10Z" fill="white"/>
<path d="M15.4004 10C15.4004 7.01766 12.9823 4.59961 10 4.59961C7.01766 4.59961 4.59961 7.01766 4.59961 10C4.59961 12.9823 7.01766 15.4004 10 15.4004V17C6.13401 17 3 13.866 3 10C3 6.13401 6.13401 3 10 3C13.866 3 17 6.13401 17 10C17 13.866 13.866 17 10 17V15.4004C12.9823 15.4004 15.4004 12.9823 15.4004 10Z" fill="#ABB8BE"/>
</svg>
