<svg width="17" height="17" viewBox="0 0 17 17" fill="none" xmlns="http://www.w3.org/2000/svg">
<path d="M12.8657 4.10254C13.0727 4.07736 13.2815 4.1354 13.4458 4.26367V4.26465C13.5272 4.32842 13.5961 4.40699 13.647 4.49707C13.6978 4.5871 13.7302 4.68646 13.7427 4.78906C13.7552 4.89173 13.747 4.99607 13.7192 5.0957C13.6915 5.19531 13.6443 5.28872 13.5806 5.37012L7.69092 12.8867L7.69189 12.8877L7.68311 12.8994L7.68213 12.9004C7.6467 12.9453 7.59151 13.0153 7.53662 13.0742L7.5376 13.0752C7.43263 13.1916 7.30097 13.2823 7.15479 13.3389H7.15381C6.92339 13.4251 6.66915 13.4234 6.43994 13.334H6.43896C6.29306 13.2758 6.16291 13.1833 6.05908 13.0654L6.05615 13.0625C6.00527 13.0019 5.9558 12.9398 5.90771 12.877L3.41553 9.61328C3.28883 9.44718 3.23337 9.23732 3.26123 9.03027C3.28914 8.82332 3.39793 8.63544 3.56396 8.50879C3.73002 8.38227 3.94007 8.32665 4.14697 8.35449C4.35387 8.38243 4.54085 8.4922 4.66748 8.6582L6.80811 11.4609L12.3413 4.39844C12.47 4.23434 12.6587 4.12778 12.8657 4.10254Z" fill="#00A093" stroke="#00A093" stroke-width="0.3"/>
</svg>
