<svg width="20" height="20" viewBox="0 0 20 20" fill="none" xmlns="http://www.w3.org/2000/svg">
<path fill-rule="evenodd" clip-rule="evenodd" d="M10 15.5C11.4587 15.5 12.8576 14.9205 13.8891 13.8891C14.9205 12.8576 15.5 11.4587 15.5 10C15.5 8.54131 14.9205 7.14236 13.8891 6.11091C12.8576 5.07946 11.4587 4.5 10 4.5C8.54131 4.5 7.14236 5.07946 6.11091 6.11091C5.07946 7.14236 4.5 8.54131 4.5 10C4.5 11.4587 5.07946 12.8576 6.11091 13.8891C7.14236 14.9205 8.54131 15.5 10 15.5ZM10 17C11.8565 17 13.637 16.2625 14.9497 14.9497C16.2625 13.637 17 11.8565 17 10C17 8.14348 16.2625 6.36301 14.9497 5.05025C13.637 3.7375 11.8565 3 10 3C8.14348 3 6.36301 3.7375 5.05025 5.05025C3.7375 6.36301 3 8.14348 3 10C3 11.8565 3.7375 13.637 5.05025 14.9497C6.36301 16.2625 8.14348 17 10 17Z" fill="#DBE4E7"/>
<path fill-rule="evenodd" clip-rule="evenodd" d="M12.9773 7.42085C13.0534 7.48348 13.1163 7.56047 13.1626 7.64744C13.2089 7.73441 13.2376 7.82965 13.2471 7.92772C13.2566 8.02578 13.2466 8.12475 13.2178 8.21898C13.189 8.3132 13.142 8.40082 13.0793 8.47685L9.92231 12.3099C9.79599 12.5357 9.58701 12.7038 9.33931 12.7789C9.10033 12.8588 8.83997 12.8456 8.61031 12.7418C8.46458 12.6741 8.33732 12.5722 8.23931 12.4448C8.1818 12.3714 8.12774 12.2953 8.07731 12.2168L6.87631 10.4159C6.76858 10.2503 6.73048 10.049 6.77027 9.85558C6.81006 9.66215 6.92454 9.49222 7.08886 9.38267C7.25318 9.27313 7.45407 9.23281 7.64793 9.27048C7.84179 9.30814 8.01297 9.42075 8.12431 9.58385L9.06431 10.9939L11.9213 7.52385C11.9839 7.44772 12.0608 7.38466 12.1477 7.33828C12.2347 7.2919 12.3299 7.26311 12.428 7.25354C12.526 7.24398 12.625 7.25383 12.7193 7.28254C12.8135 7.31124 12.9012 7.35824 12.9773 7.42085Z" fill="#DBE4E7"/>
</svg>
