<svg width="17" height="17" viewBox="0 0 17 17" fill="none" xmlns="http://www.w3.org/2000/svg">
<path d="M9.7752 7.0127C9.94427 7.0127 10.1064 7.07986 10.226 7.19941C10.3455 7.31897 10.4127 7.48112 10.4127 7.6502V11.2627C10.4127 11.4318 10.3455 11.5939 10.226 11.7135C10.1064 11.833 9.94427 11.9002 9.7752 11.9002C9.60612 11.9002 9.44397 11.833 9.32442 11.7135C9.20486 11.5939 9.1377 11.4318 9.1377 11.2627V7.6502C9.1377 7.48112 9.20486 7.31897 9.32442 7.19941C9.44397 7.07986 9.60612 7.0127 9.7752 7.0127Z" fill="#E62727"/>
<path d="M7.86289 7.6502C7.86289 7.48112 7.79573 7.31897 7.67617 7.19941C7.55662 7.07986 7.39447 7.0127 7.22539 7.0127C7.05632 7.0127 6.89416 7.07986 6.77461 7.19941C6.65506 7.31897 6.58789 7.48112 6.58789 7.6502V11.2627C6.58789 11.4318 6.65506 11.5939 6.77461 11.7135C6.89416 11.833 7.05632 11.9002 7.22539 11.9002C7.39447 11.9002 7.55662 11.833 7.67617 11.7135C7.79573 11.5939 7.86289 11.4318 7.86289 11.2627V7.6502Z" fill="#E62727"/>
<path fill-rule="evenodd" clip-rule="evenodd" d="M6.16211 4.4625C6.16211 3.84256 6.40838 3.248 6.84675 2.80964C7.28511 2.37127 7.87967 2.125 8.49961 2.125C9.11955 2.125 9.71411 2.37127 10.1525 2.80964C10.5908 3.248 10.8371 3.84256 10.8371 4.4625H13.3871C13.5562 4.4625 13.7183 4.52966 13.8379 4.64922C13.9574 4.76877 14.0246 4.93092 14.0246 5.1C14.0246 5.26908 13.9574 5.43123 13.8379 5.55078C13.7183 5.67033 13.5562 5.7375 13.3871 5.7375H12.7496V10.37C12.7496 11.798 12.7496 12.512 12.4717 13.0577C12.2272 13.5375 11.8371 13.9276 11.3573 14.172C10.8116 14.45 10.0976 14.45 8.66961 14.45H8.32961C6.90161 14.45 6.18761 14.45 5.64191 14.172C5.16212 13.9276 4.77203 13.5375 4.52756 13.0577C4.24961 12.512 4.24961 11.798 4.24961 10.37V5.7375H3.61211C3.44303 5.7375 3.28088 5.67033 3.16133 5.55078C3.04177 5.43123 2.97461 5.26908 2.97461 5.1C2.97461 4.93092 3.04177 4.76877 3.16133 4.64922C3.28088 4.52966 3.44303 4.4625 3.61211 4.4625H6.16211ZM7.43711 4.4625C7.43711 4.18071 7.54905 3.91046 7.74831 3.7112C7.94757 3.51194 8.21782 3.4 8.49961 3.4C8.7814 3.4 9.05165 3.51194 9.25091 3.7112C9.45017 3.91046 9.56211 4.18071 9.56211 4.4625H7.43711ZM5.52461 5.7375H11.4746V10.37C11.4746 11.1052 11.4738 11.5795 11.444 11.9408C11.416 12.2876 11.3675 12.4159 11.3352 12.4788C11.213 12.7185 11.0181 12.9134 10.7785 13.0356C10.7156 13.0679 10.5872 13.1163 10.2404 13.1444C9.87916 13.1741 9.40486 13.175 8.66961 13.175H8.32961C7.59436 13.175 7.12006 13.1741 6.75881 13.1444C6.41201 13.1163 6.28366 13.0679 6.22076 13.0356C5.98077 12.9135 5.78558 12.7187 5.66316 12.4788C5.63171 12.4159 5.58326 12.2876 5.55521 11.9408C5.52546 11.5795 5.52461 11.1052 5.52461 10.37V5.7375Z" fill="#E62727"/>
</svg>
