<svg width="20" height="20" viewBox="0 0 20 20" fill="none" xmlns="http://www.w3.org/2000/svg">
<path d="M16.5916 12.9253H12.8166C12.5956 12.9253 12.3837 13.0131 12.2274 13.1694C12.0711 13.3257 11.9833 13.5376 11.9833 13.7587C11.9833 13.9797 12.0711 14.1916 12.2274 14.3479C12.3837 14.5042 12.5956 14.592 12.8166 14.592H14.8166C13.8974 15.5526 12.712 16.2164 11.4126 16.4982C10.1132 16.7799 8.7593 16.6667 7.52477 16.173C6.29025 15.6794 5.23152 14.8279 4.48462 13.728C3.73772 12.628 3.33677 11.3299 3.33329 10.0003C3.33329 9.77931 3.2455 9.56735 3.08921 9.41107C2.93293 9.25479 2.72097 9.16699 2.49996 9.16699C2.27895 9.16699 2.06698 9.25479 1.9107 9.41107C1.75442 9.56735 1.66663 9.77931 1.66663 10.0003C1.67103 11.6277 2.15181 13.2181 3.04963 14.5753C3.94745 15.9326 5.22301 16.9973 6.71891 17.638C8.21481 18.2787 9.86557 18.4674 11.4675 18.1809C13.0694 17.8943 14.5523 17.1449 15.7333 16.0253V17.5003C15.7333 17.7213 15.8211 17.9333 15.9774 18.0896C16.1337 18.2459 16.3456 18.3337 16.5666 18.3337C16.7876 18.3337 16.9996 18.2459 17.1559 18.0896C17.3122 17.9333 17.4 17.7213 17.4 17.5003V13.7503C17.3979 13.535 17.3126 13.3289 17.1619 13.1751C17.0112 13.0213 16.8068 12.9318 16.5916 12.9253ZM9.99996 1.66699C7.86361 1.67309 5.8112 2.49942 4.26663 3.97533V2.50033C4.26663 2.27931 4.17883 2.06735 4.02255 1.91107C3.86627 1.75479 3.65431 1.66699 3.43329 1.66699C3.21228 1.66699 3.00032 1.75479 2.84404 1.91107C2.68776 2.06735 2.59996 2.27931 2.59996 2.50033V6.25033C2.59996 6.47134 2.68776 6.6833 2.84404 6.83958C3.00032 6.99586 3.21228 7.08366 3.43329 7.08366H7.18329C7.40431 7.08366 7.61627 6.99586 7.77255 6.83958C7.92883 6.6833 8.01663 6.47134 8.01663 6.25033C8.01663 6.02931 7.92883 5.81735 7.77255 5.66107C7.61627 5.50479 7.40431 5.41699 7.18329 5.41699H5.18329C6.10201 4.45688 7.2867 3.79324 8.58529 3.51125C9.88388 3.22926 11.2371 3.34178 12.4713 3.83438C13.7055 4.32698 14.7643 5.17717 15.5118 6.27583C16.2594 7.37449 16.6615 8.67148 16.6666 10.0003C16.6666 10.2213 16.7544 10.4333 16.9107 10.5896C17.067 10.7459 17.2789 10.8337 17.5 10.8337C17.721 10.8337 17.9329 10.7459 18.0892 10.5896C18.2455 10.4333 18.3333 10.2213 18.3333 10.0003C18.3333 8.90598 18.1177 7.82234 17.699 6.8113C17.2802 5.80025 16.6663 4.88159 15.8925 4.10777C15.1187 3.33395 14.2 2.72012 13.189 2.30133C12.1779 1.88254 11.0943 1.66699 9.99996 1.66699V1.66699Z" fill="#849197"/>
</svg>
