<?xml version="1.0" encoding="UTF-8"?>
<svg id="_레이어_1" data-name="레이어 1" xmlns="http://www.w3.org/2000/svg" viewBox="0 0 800 800">
  <defs>
    <style>
      .cls-1 {
        fill: #ccf5ec;
      }

      .cls-2 {
        fill: #001d35;
      }

      .cls-3 {
        fill: #33d1b7;
      }
    </style>
  </defs>
  <g>
    <g>
      <rect class="cls-3" x="359.47" y="561.64" width="16.83" height="45.51" transform="translate(735.77 1168.79) rotate(180)"/>
      <path class="cls-3" d="M361.43,610.31c-.66-4.15-7.08-7.12-12.16-7.37-15.32-.76-26.08,22.76-27.64,26.17-2.51,5.5-6.55,16.57-5.16,32.06,3.03-6.93,8.44-17.05,18.06-26.53,13.73-13.53,27.95-17.76,26.9-24.32Z"/>
      <path class="cls-3" d="M375.68,605.78c-1.86-3.77-8.87-4.69-13.8-3.42-14.86,3.83-18.13,29.48-18.61,33.2-.77,5.99-1.33,17.77,4.61,32.15.83-7.51,2.98-18.79,9.35-30.7,9.08-17,21.4-25.26,18.45-31.22Z"/>
      <path class="cls-3" d="M392.13,605.52c-2.2-3.24-8.92-3.16-13.43-1.33-13.56,5.53-13.63,29.74-13.64,33.24-.01,5.66.85,16.64,8.14,29.17-.1-7.07.6-17.81,5.2-29.69,6.56-16.96,17.21-26.26,13.72-31.39Z"/>
    </g>
    <g>
      <rect class="cls-3" x="433.39" y="561.64" width="16.83" height="45.51"/>
      <path class="cls-3" d="M448.25,610.31c.66-4.15,7.08-7.12,12.16-7.37,15.32-.76,26.08,22.76,27.64,26.17,2.51,5.5,6.55,16.57,5.16,32.06-3.03-6.93-8.44-17.05-18.06-26.53-13.73-13.53-27.95-17.76-26.9-24.32Z"/>
      <path class="cls-3" d="M434,605.78c1.86-3.77,8.87-4.69,13.8-3.42,14.86,3.83,18.13,29.48,18.61,33.2.77,5.99,1.33,17.77-4.61,32.15-.83-7.51-2.98-18.79-9.35-30.7-9.08-17-21.4-25.26-18.45-31.22Z"/>
      <path class="cls-3" d="M417.56,605.52c2.2-3.24,8.92-3.16,13.43-1.33,13.56,5.53,13.63,29.74,13.64,33.24.01,5.66-.85,16.64-8.14,29.17.1-7.07-.6-17.81-5.2-29.69-6.56-16.96-17.21-26.26-13.72-31.39Z"/>
    </g>
  </g>
  <path class="cls-1" d="M399.84,290.31c-39.06,0-76.02,8.99-108.93,25l10.5,38.21-9.93,192.73c6.56,6.89,45.44,46.36,108.13,46.53,63.15.17,102.4-39.68,108.92-46.53v-221.29l2.83-8.36c-33.56-16.81-71.43-26.28-111.51-26.28Z"/>
  <path class="cls-2" d="M559.75,417.82c-1.33-32-11.82-57.59-21.43-74.82-6.67-11.95-16.86-21.52-29.17-27.5-23.69-11.51-61.52-25.22-109.3-25.19-47.63.03-85.34,13.71-108.99,25.2-12.31,5.98-22.5,15.55-29.17,27.49-9.62,17.22-20.1,42.82-21.43,74.82-3,72.05,42.79,119.92,51.22,128.43,10.85-15.39,38.39-58.81,37.41-119.62-.31-19.2-3.4-36.27-7.52-50.77,15.2-9.23,42.31-20.7,79.76-20.33,36.38.35,62.63,11.38,77.5,20.34-4.11,14.49-7.21,31.56-7.52,50.76-.98,60.81,26.56,104.23,37.41,119.62,8.43-8.51,54.22-56.37,51.22-128.43Z"/>
</svg>