<svg width="90" height="124" viewBox="0 0 90 124" fill="none" xmlns="http://www.w3.org/2000/svg">
<g clip-path="url(#clip0_560_73172)">
<path d="M4.09082 62.1632L42.9545 116.305L67.4999 96.2527L57.2726 52.1369L85.909 62.1632V14.0703L4.09082 14.0742V62.1632Z" fill="#D3FCF3"/>
<path d="M37.4184 85.8792C35.1307 83.0164 27.9755 72.3765 27.9755 57.1797C27.9755 45.9587 32.5372 39.1894 34.6426 36.8652C34.6426 36.8652 18.3638 38.3179 18.5326 57.5932C18.636 69.4757 27.9755 81.0051 37.4206 85.8792H37.4184Z" fill="#00A093"/>
<path d="M89.0419 61.3699C90.6547 40.4431 89.7527 18.5285 89.7077 17.496L89.5615 14.0723H70.7049L74.2837 21.2237H82.6244C82.7863 27.2085 82.9955 40.2218 82.3095 53.7201C78.3753 49.4293 73.5121 44.4591 70.0211 42.0119C65.1647 38.6061 55.7308 35.3969 47.9839 40.6889C39.5712 46.4346 40.8264 60.3665 41.391 64.045C43.222 75.9811 57.1209 90.2907 65.0005 97.565C63.8533 98.6824 62.6521 99.7864 61.3925 100.875C59.7459 102.298 58.1061 103.608 56.5271 104.797C56.5271 104.797 37.4163 97.6164 25.0942 85.8791C21.2028 82.1738 18.1886 78.2517 15.8425 74.419C10.5047 65.7055 7.648 55.7136 7.36908 45.5161C7.08341 35.1712 7.24311 25.9794 7.37133 21.2259H15.9685L16.5578 14.0745H0.438734L0.292524 17.4982C0.243038 18.6536 -0.888401 46.057 1.66015 68.8901C2.48792 76.3119 5.24566 83.6197 9.85465 90.6125C13.4739 96.1034 18.2403 101.411 24.019 106.39C33.7813 114.798 43.024 119.352 43.4132 119.542L45.0012 120.318L46.5893 119.542C46.9784 119.352 56.2211 114.798 65.9835 106.39C67.5355 105.054 69.0111 103.693 70.4125 102.312C70.4125 102.312 70.4777 102.245 70.6059 102.115C71.8566 100.875 73.0465 99.6188 74.1735 98.3494C74.2117 98.3092 74.2454 98.2734 74.2837 98.231C76.1192 96.2532 77.6577 94.1189 77.6577 94.1189L64.3279 75.7197L80.8339 89.5398C80.8339 89.5398 82.107 87.8637 83.947 83.9125C85.5036 80.5692 86.4303 77.7064 86.4303 77.7064L72.4977 58.7708L87.9532 71.583L88.6392 65.149L88.7157 65.2026C88.8327 63.9422 88.9407 62.675 89.0396 61.4012L89.0419 61.3699Z" fill="#00A093"/>
<path d="M21.5127 21.7355C22.246 24.8755 25.006 25.9281 25.1904 25.9906L25.4108 24.5291C24.8777 24.2877 24.5628 23.9905 24.2749 23.5904C23.7778 22.8976 23.7418 22.1914 23.7283 21.9255C23.6878 21.1411 24.1085 20.5064 24.1085 20.5064C24.961 21.9255 26.1509 22.7636 27.2486 23.1189C27.2486 23.1189 26.6975 25.5772 26.8122 28.4556C26.9292 31.3899 28.3913 34.3108 28.3913 34.3108C31.7653 32.2705 33.5311 26.5583 33.5311 26.5583C31.6754 24.1089 32.294 21.9769 32.294 21.9769C32.7258 21.8696 33.1532 21.7467 33.5851 21.6082C35.0607 24.2542 38.6754 26.0286 41.5749 24.538C44.3169 23.1278 45.0862 20.417 44.9692 17.9565C44.8815 19.38 44.2832 20.8193 42.7221 21.6238C40.8618 22.5803 38.6147 21.6082 37.5845 19.9611C38.1896 19.6728 38.8284 19.3555 39.5167 19.0091C42.6928 17.4089 45.1559 15.5987 46.9419 14.0791C47.6077 14.5908 50.1743 16.6849 50.7569 20.3187C51.254 23.4139 50.2733 27.3583 46.9419 29.5842C44.0875 31.4905 40.322 31.5933 37.2426 29.868C39.3975 31.8861 42.6838 34.2751 46.9419 34.6908C52.0188 35.1869 54.5471 32.4962 59.8939 32.5163C62.7326 32.5275 66.7455 33.3052 71.5996 36.8652C71.8493 28.7439 67.1234 18.9174 64.6221 15.2881C60.1593 8.80936 56.5895 6.88966 56.5895 6.88966C56.5895 6.88966 60.3887 5.1532 63.0745 0.00195312C63.0745 0.00195312 53.8903 3.34971 44.7578 3.1374C35.4341 2.91839 29.9793 8.44509 29.9793 8.44509C29.9793 8.44509 28.3598 5.75213 29.7949 1.64901C29.0841 1.91272 24.8732 3.26032 23.0512 8.44509C21.7893 12.0364 22.2437 16.0613 22.6014 17.1139C22.4597 17.2592 20.9031 19.1186 21.5149 21.7355H21.5127Z" fill="#00A093"/>
</g>
<defs>
<clipPath id="clip0_560_73172">
<rect width="90" height="120.316" fill="white"/>
</clipPath>
</defs>
</svg>
